<?xml version="1.0" standalone="no"?>
<!DOCTYPE svg PUBLIC "-//W3C//DTD SVG 20010904//EN"
 "http://www.w3.org/TR/2001/REC-SVG-20010904/DTD/svg10.dtd">
<svg version="1.0" xmlns="http://www.w3.org/2000/svg"
 width="2723.000000pt" height="674.000000pt" viewBox="0 0 2723.000000 674.000000"
 preserveAspectRatio="xMidYMid meet">

<g transform="translate(0.000000,674.000000) scale(0.100000,-0.100000)"
fill="#000000" stroke="none">
<path d="M13366 6724 c-179 -43 -333 -204 -366 -383 -6 -30 -10 -242 -10 -488
l0 -435 -87 6 c-49 3 -136 9 -196 12 l-107 6 26 -62 c22 -50 25 -63 14 -70 -8
-5 -874 -383 -1924 -841 -1051 -458 -1913 -833 -1915 -835 -2 -2 2 -17 9 -35
11 -26 11 -35 -4 -59 -16 -28 -16 -29 6 -41 13 -7 887 -466 1943 -1021 1056
-555 1923 -1012 1928 -1017 5 -5 -5 -33 -22 -63 l-31 -55 112 -6 c62 -4 150
-7 196 -7 l82 0 0 -442 c0 -488 3 -520 61 -629 40 -74 123 -158 197 -197 125
-67 -280 -62 4777 -62 5057 0 4652 -5 4777 62 74 39 157 123 197 197 62 116
61 99 61 1062 0 542 -4 897 -10 930 -15 83 -72 189 -135 252 l-55 55 25 16
c14 9 25 21 25 27 0 6 -7 3 -16 -5 -8 -9 -20 -14 -25 -10 -5 3 -8 2 -7 -3 2
-4 -1 -10 -7 -12 -5 -3 -16 -11 -24 -19 -8 -7 -25 -12 -37 -9 -13 2 -21 0 -18
-4 3 -5 -28 -10 -68 -11 -40 -1 -91 -3 -113 -4 -22 0 -2081 -3 -4575 -5
l-4535 -4 4590 -5 4590 -5 53 -28 c76 -40 129 -92 165 -161 l32 -61 0 -930 0
-930 -29 -55 c-38 -74 -89 -125 -161 -163 l-60 -32 -4640 0 -4640 0 -57 30
c-71 36 -127 92 -165 165 l-28 55 0 930 0 930 32 60 c55 105 157 179 262 192
28 3 51 10 51 16 0 5 -15 7 -37 3 -21 -4 -33 -3 -26 1 6 4 -38 6 -98 5 -84 -3
-116 0 -140 12 -35 18 -54 21 -27 5 15 -8 12 -15 -26 -55 -46 -48 -95 -131
-117 -199 -9 -29 -14 -157 -18 -453 l-6 -414 -94 131 c-52 72 -97 131 -101
131 -4 0 -15 -17 -24 -37 -9 -21 -23 -46 -30 -56 -12 -16 -167 64 -1852 949
-1011 531 -1862 978 -1891 993 l-52 26 1860 810 c1022 446 1864 810 1870 810
6 0 23 -26 38 -59 l26 -59 110 133 110 133 5 -429 c5 -409 6 -431 27 -481 32
-79 67 -134 115 -182 24 -24 43 -47 43 -52 0 -4 7 -14 15 -21 12 -11 12 -11 1
5 -12 15 -11 17 11 17 13 0 30 6 36 13 10 9 904 12 4390 14 2407 2 4456 4
4552 5 96 2 -1839 5 -4300 8 l-4475 5 -59 24 c-76 30 -144 94 -182 168 l-29
58 0 930 0 930 32 60 c38 72 89 123 163 161 l55 29 4640 0 4640 0 60 -32 c73
-38 124 -90 162 -163 l28 -55 0 -930 0 -930 -29 -55 c-15 -30 -44 -72 -65 -93
-46 -50 -138 -96 -204 -105 l-52 -6 40 -7 c22 -5 77 -8 122 -8 51 -1 87 -6 95
-13 23 -22 41 -14 94 41 64 65 108 146 129 232 22 96 22 1792 0 1888 -44 184
-203 337 -384 371 -35 7 -1627 10 -4645 9 -3929 -1 -4599 -3 -4650 -15z"/>
<path d="M16700 6561 c-8 -4 -35 -11 -60 -14 -100 -13 -260 -98 -345 -182 -75
-75 -93 -100 -142 -195 -15 -30 -30 -57 -33 -60 -3 -3 -20 -34 -38 -70 -90
-174 -251 -488 -263 -510 -29 -52 -28 -52 -67 -21 -132 104 -351 160 -517 131
-71 -12 -194 -47 -217 -61 -10 -6 8 -50 71 -171 46 -90 110 -213 141 -274 96
-185 112 -204 216 -255 62 -31 67 -31 168 -27 64 3 111 10 120 17 9 7 30 42
48 77 18 35 38 64 44 64 6 0 20 -12 30 -27 21 -33 31 -42 104 -91 l55 -37 111
0 c76 0 119 4 137 14 19 10 46 52 90 140 35 69 95 187 134 261 84 160 290 563
456 890 65 129 130 255 143 279 13 24 24 48 24 52 0 4 -17 13 -37 20 -21 6
-42 15 -48 19 -30 23 -295 49 -325 31z m60 -244 c0 -13 -46 -105 -140 -282
-26 -49 -88 -169 -137 -265 -50 -96 -122 -236 -161 -310 -39 -74 -104 -200
-145 -280 -41 -79 -79 -146 -85 -148 -13 -4 -142 254 -131 265 4 4 55 100 112
213 194 381 284 555 298 580 20 36 141 160 156 160 7 0 13 4 13 8 0 10 94 52
115 52 7 0 17 5 20 10 9 15 85 13 85 -3z m-1282 -933 c108 -35 199 -107 186
-148 -7 -23 -92 -186 -104 -199 -4 -4 -12 -2 -17 5 -14 16 -183 350 -183 359
0 10 64 0 118 -17z"/>
<path d="M18263 6303 c-32 -13 1 -47 35 -36 17 6 15 30 -4 37 -9 3 -16 6 -17
5 -1 0 -8 -3 -14 -6z"/>
<path d="M18130 6157 c0 -127 2 -146 18 -160 25 -23 72 -22 72 1 0 9 -10 22
-22 27 -22 10 -23 16 -26 143 -2 124 -4 132 -22 132 -19 0 -20 -7 -20 -143z"/>
<path d="M17379 6274 c-37 -19 -54 -67 -53 -149 0 -90 22 -118 116 -148 9 -3
22 -18 30 -34 10 -22 21 -29 51 -31 28 -2 37 0 37 12 0 9 -8 16 -18 16 -21 0
-42 18 -42 37 0 7 13 19 29 27 29 16 61 87 61 140 0 46 -36 113 -71 130 -38
19 -104 19 -140 0z m130 -45 c38 -41 38 -147 0 -188 -24 -26 -79 -28 -107 -3
-41 35 -43 148 -3 196 20 24 85 21 110 -5z"/>
<path d="M18380 6240 c0 -23 -4 -30 -20 -30 -11 0 -20 -7 -20 -15 0 -8 9 -15
20 -15 18 0 20 -7 20 -83 0 -92 14 -117 68 -117 58 0 68 34 12 42 -24 3 -25 6
-28 81 l-3 77 31 0 c20 0 30 5 30 15 0 10 -10 15 -30 15 -27 0 -30 3 -30 30 0
25 -4 30 -25 30 -21 0 -25 -5 -25 -30z"/>
<path d="M17922 6213 c-50 -6 -33 -27 24 -31 53 -4 74 -15 74 -42 0 -18 -27
-30 -71 -30 -25 0 -79 -42 -79 -62 0 -6 9 -23 21 -39 23 -33 56 -38 95 -13 22
15 26 15 42 1 34 -31 73 -11 48 25 -10 15 -16 44 -16 84 0 92 -36 119 -138
107z m98 -147 c0 -30 -4 -36 -33 -45 -43 -14 -67 -5 -67 24 0 28 16 42 55 48
17 2 33 5 38 6 4 0 7 -14 7 -33z"/>
<path d="M17630 6121 c0 -74 3 -92 21 -115 22 -28 57 -34 89 -14 15 10 27 10
56 -1 46 -17 64 -3 40 30 -12 17 -16 46 -16 106 0 76 -2 83 -20 83 -19 0 -20
-7 -20 -90 l0 -89 -35 -7 c-55 -10 -65 5 -65 102 0 83 0 84 -25 84 -25 0 -25
-1 -25 -89z"/>
<path d="M18260 6094 c0 -114 0 -115 23 -112 21 3 22 7 25 116 l3 112 -26 0
-25 0 0 -116z"/>
<path d="M18527 6190 c3 -11 9 -23 14 -26 5 -3 9 -11 9 -19 0 -8 5 -26 12 -42
46 -113 57 -166 38 -178 -20 -12 -10 -35 15 -35 18 0 25 5 25 18 0 10 3 22 7
26 4 3 8 12 9 19 2 16 43 136 54 162 5 11 13 37 19 58 9 35 8 37 -14 37 -25 0
-29 -8 -41 -73 -3 -20 -10 -40 -15 -43 -5 -3 -9 -16 -9 -30 0 -13 -4 -24 -8
-24 -15 0 -32 24 -32 46 0 13 -4 25 -9 29 -6 3 -13 26 -17 50 -6 41 -9 45 -34
45 -23 0 -27 -4 -23 -20z"/>
<path d="M17312 5453 l3 -348 225 0 c210 0 228 1 270 22 55 26 93 66 111 115
11 34 9 44 -29 155 -23 65 -42 121 -42 126 0 4 16 7 35 7 49 0 61 32 40 104
-19 64 -64 120 -118 146 -37 18 -62 20 -269 20 l-228 0 2 -347z m426 155 c17
-17 15 -39 -5 -54 -13 -9 -53 -13 -130 -14 l-113 0 0 40 0 40 118 0 c78 0 122
-4 130 -12z m0 -258 c18 -17 20 -25 12 -40 -10 -18 -22 -20 -135 -20 l-125 0
0 33 c0 19 3 37 7 40 3 4 54 7 113 7 93 0 109 -2 128 -20z"/>
<path d="M18810 5450 l0 -350 285 0 285 0 0 95 0 95 -195 0 -195 0 0 255 0
255 -90 0 -90 0 0 -350z"/>
<path d="M19675 5790 c-3 -5 -14 -10 -24 -10 -10 0 -46 -18 -79 -40 -69 -44
-117 -110 -145 -197 -19 -57 -23 -148 -7 -158 6 -3 10 -16 10 -28 0 -62 96
-178 187 -223 52 -27 66 -29 162 -29 101 0 109 2 166 33 105 59 105 58 31 131
l-64 64 -30 -22 c-17 -11 -37 -21 -45 -21 -9 0 -19 -4 -22 -10 -15 -25 -123 6
-167 47 -41 39 -63 113 -47 160 29 91 85 133 176 133 51 0 66 -5 101 -30 l42
-30 37 33 c21 17 44 38 51 44 7 7 21 17 30 23 15 9 10 16 -36 60 -34 31 -65
52 -87 56 -20 3 -38 10 -41 15 -7 12 -191 11 -199 -1z"/>
<path d="M20358 5763 c-9 -21 -33 -81 -53 -133 -20 -52 -42 -108 -50 -125 -7
-16 -21 -52 -31 -80 -10 -27 -24 -61 -31 -75 -7 -14 -13 -32 -13 -41 0 -8 -4
-19 -8 -25 -5 -5 -19 -38 -32 -74 -13 -36 -27 -69 -32 -74 -4 -6 -8 -16 -8
-23 0 -11 21 -13 98 -11 l97 3 19 43 19 42 136 0 136 0 11 -27 c7 -16 14 -36
18 -45 5 -16 19 -18 106 -18 55 0 100 2 100 4 0 5 -28 73 -46 113 -8 17 -14
36 -14 42 0 6 -4 19 -9 29 -20 37 -41 86 -41 96 0 6 -6 22 -13 36 -7 14 -24
54 -37 90 -13 36 -30 76 -37 90 -7 14 -13 31 -13 38 0 7 -4 20 -10 30 -5 9
-16 35 -25 57 -30 73 -24 70 -126 73 l-95 3 -16 -38z m141 -300 c13 -38 28
-73 33 -80 5 -6 5 -13 1 -15 -11 -6 -123 -4 -125 2 -4 8 54 160 61 160 3 0 17
-30 30 -67z"/>
<path d="M18258 5771 c-15 -7 -28 -18 -28 -23 0 -5 -4 -6 -10 -3 -17 10 -34
-6 -19 -17 10 -7 8 -8 -8 -5 -15 3 -29 -4 -47 -23 -13 -16 -23 -31 -20 -34 2
-3 1 -4 -3 -1 -10 8 -43 -26 -43 -46 0 -9 -5 -19 -11 -21 -14 -5 -38 -116 -39
-174 0 -43 23 -113 32 -98 3 5 20 53 37 107 l33 97 39 0 c26 0 39 4 39 14 0
20 45 64 74 72 15 3 29 10 32 15 8 14 78 11 115 -5 77 -32 130 -106 128 -179
-1 -51 -48 -126 -97 -153 -114 -64 -258 8 -274 136 -2 18 -14 -5 -41 -78 -20
-57 -37 -110 -37 -118 0 -8 31 -34 69 -59 51 -33 84 -47 132 -54 79 -13 134
-14 157 -2 9 5 36 17 60 27 25 10 65 41 97 75 100 109 121 245 59 380 -30 64
-102 138 -118 121 -4 -4 -12 1 -17 10 -5 10 -25 25 -44 34 -45 21 -207 25
-247 5z"/>
<path d="M22408 4223 c28 -2 76 -2 105 0 28 2 5 3 -53 3 -58 0 -81 -1 -52 -3z"/>
<path d="M22899 4163 c34 -24 91 -85 86 -93 -2 -4 2 -7 10 -7 8 0 15 2 15 5 0
10 -112 112 -123 112 -6 0 -1 -8 12 -17z"/>
<path d="M13090 4124 c-45 -39 -73 -101 -45 -101 8 0 12 9 9 22 -2 14 7 34 25
56 26 30 31 32 47 18 10 -7 15 -9 11 -2 -4 6 -2 13 5 15 8 3 6 7 -5 11 -10 4
-28 -3 -47 -19z"/>
<path d="M14085 4100 c-662 -4 -556 -5 555 -5 756 0 1287 1 1180 2 -479 7
-973 8 -1735 3z"/>
<path d="M16028 4098 c-6 -3 52 -6 128 -6 76 -1 135 1 129 3 -17 7 -246 10
-257 3z"/>
<path d="M17125 4100 l-140 -6 174 -2 c96 -1 172 0 170 2 -11 9 -75 11 -204 6z"/>
<path d="M20255 4100 l-410 -5 423 -3 c232 -1 422 0 422 2 0 10 -51 11 -435 6z"/>
<path d="M16478 4093 c90 -2 234 -2 320 0 86 1 13 3 -163 3 -176 0 -247 -2
-157 -3z"/>
<path d="M17702 4093 c201 -2 534 -2 740 0 205 1 40 2 -367 2 -407 0 -575 -1
-373 -2z"/>
<path d="M18828 4093 c6 -2 18 -2 25 0 6 3 1 5 -13 5 -14 0 -19 -2 -12 -5z"/>
<path d="M18933 4093 c37 -2 96 -2 130 0 34 2 4 3 -68 3 -71 0 -99 -1 -62 -3z"/>
<path d="M19312 4093 c92 -2 245 -2 340 0 95 1 20 3 -167 3 -187 0 -265 -2
-173 -3z"/>
<path d="M21208 4093 c281 -2 743 -2 1025 0 281 1 51 2 -513 2 -564 0 -794 -1
-512 -2z"/>
<path d="M13201 4064 c-14 -13 -29 -20 -34 -17 -6 3 -7 1 -3 -5 3 -6 2 -13 -4
-17 -5 -3 -15 -16 -21 -28 -6 -14 0 -10 18 11 15 18 41 41 56 51 16 10 25 21
20 24 -4 2 -19 -6 -32 -19z"/>
<path d="M22790 4086 c0 -2 7 -7 16 -10 8 -3 12 -2 9 4 -6 10 -25 14 -25 6z"/>
<path d="M17267 4048 c-12 -28 -12 -34 0 -36 23 -6 39 4 62 37 l22 31 -35 0
c-31 0 -38 -4 -49 -32z"/>
<path d="M20602 4044 c-10 -34 -10 -35 14 -32 15 2 33 16 45 36 l21 32 -34 0
c-31 0 -36 -4 -46 -36z"/>
<path d="M14894 3978 c-26 -51 -69 -135 -95 -185 l-49 -93 40 0 c41 0 41 0 70
65 l29 65 74 0 c82 0 83 -1 107 -89 10 -39 12 -41 51 -41 22 0 39 4 37 8 -1 4
-32 88 -67 185 l-64 177 -43 0 -44 0 -46 -92z m109 -21 c9 -30 17 -57 17 -60
0 -4 -24 -7 -54 -7 l-54 0 31 60 c17 33 34 60 37 60 4 0 14 -24 23 -53z"/>
<path d="M16016 4049 c-3 -13 -7 -97 -10 -186 l-5 -163 33 0 33 0 6 107 c4 58
7 128 7 155 l0 48 58 0 c65 0 82 -11 82 -51 0 -34 -32 -59 -77 -59 l-32 0 38
-82 c21 -46 41 -91 44 -100 5 -13 17 -18 46 -18 l40 0 -45 85 -45 84 34 15
c68 28 88 100 43 153 -23 27 -28 28 -135 31 -109 4 -110 4 -115 -19z"/>
<path d="M16899 4028 c-1 -24 -1 -46 -1 -49 1 -3 -25 -6 -56 -5 -91 0 -144
-38 -162 -119 -11 -47 3 -103 34 -133 34 -34 104 -37 138 -4 30 27 38 28 38 2
0 -15 7 -20 28 -20 l29 0 9 185 9 185 -32 0 c-32 0 -33 -1 -34 -42z m-11 -166
c-6 -75 -22 -110 -55 -118 -61 -16 -102 32 -88 102 9 53 48 84 103 84 l45 0
-5 -68z"/>
<path d="M18840 4069 c-1 -2 -3 -47 -5 -99 -3 -52 -7 -135 -10 -184 l-6 -89
113 5 c138 6 181 24 218 89 50 89 26 223 -47 259 -25 12 -262 29 -263 19z
m207 -65 c32 -9 67 -84 58 -126 -19 -85 -59 -118 -150 -120 -30 -1 -56 0 -58
3 -2 2 -1 59 1 127 l4 122 62 0 c33 0 71 -3 83 -6z"/>
<path d="M19788 3931 c-4 -169 -10 -181 -95 -181 -49 0 -53 -2 -53 -24 0 -20
6 -24 48 -30 63 -8 106 1 136 29 26 24 30 50 40 258 l4 87 -38 0 -38 0 -4
-139z"/>
<path d="M22880 4023 c0 -6 8 -17 18 -24 16 -13 16 -13 2 6 -8 11 -16 22 -17
24 -2 2 -3 0 -3 -6z"/>
<path d="M23011 4014 c0 -11 3 -14 6 -6 3 7 2 16 -1 19 -3 4 -6 -2 -5 -13z"/>
<path d="M13010 3991 c0 -6 4 -13 10 -16 6 -3 7 1 4 9 -7 18 -14 21 -14 7z"/>
<path d="M22916 3973 c-6 -14 -5 -15 5 -6 7 7 10 15 7 18 -3 3 -9 -2 -12 -12z"/>
<path d="M15342 3969 c-18 -5 -35 -16 -39 -24 -8 -22 -23 -18 -23 5 0 16 -7
20 -30 20 -36 0 -38 -5 -43 -157 l-3 -113 31 0 32 0 6 82 c8 103 26 132 84
136 56 4 68 -21 61 -133 l-6 -85 34 0 c32 0 34 2 34 33 0 19 3 67 6 108 6 69
5 77 -17 101 -28 31 -78 42 -127 27z"/>
<path d="M15623 3968 c-68 -15 -55 -35 23 -34 53 1 69 -3 77 -16 16 -25 2 -35
-78 -57 -78 -22 -105 -46 -105 -96 0 -43 26 -64 89 -72 47 -5 51 -4 51 16 0
17 -6 21 -29 21 -33 0 -54 21 -49 47 3 16 97 72 122 73 5 0 6 -34 4 -75 l-5
-75 32 0 32 0 6 111 c4 65 3 118 -3 129 -19 36 -85 47 -167 28z"/>
<path d="M16425 3965 c-21 -8 -47 -24 -57 -37 -38 -49 -36 -152 3 -194 45 -48
151 -54 206 -11 79 62 67 198 -21 238 -49 22 -77 23 -131 4z m114 -61 c39 -49
21 -140 -30 -158 -64 -22 -117 31 -104 103 14 78 91 109 134 55z"/>
<path d="M17160 3973 c-8 -3 -23 -12 -32 -21 -16 -14 -18 -13 -18 1 0 13 -9
17 -35 17 l-35 0 0 -104 c0 -57 -3 -118 -6 -135 -6 -30 -6 -31 30 -31 l36 0 0
69 c0 107 23 151 79 151 17 0 21 6 21 30 0 30 -9 34 -40 23z"/>
<path d="M17477 3967 c-43 -13 -85 -49 -98 -85 -17 -43 -11 -117 12 -145 30
-39 85 -53 132 -33 20 8 37 20 37 25 0 6 5 11 11 11 18 0 4 -78 -18 -102 -15
-17 -27 -19 -73 -15 -30 2 -62 7 -70 11 -25 11 -22 -32 2 -45 31 -17 150 -17
181 0 38 20 45 50 52 222 l7 156 -54 6 c-67 8 -75 8 -121 -6z m105 -107 c-4
-81 -24 -114 -74 -118 -81 -7 -105 103 -36 167 18 17 33 21 68 19 l45 -3 -3
-65z"/>
<path d="M18161 3973 c-63 -12 -101 -69 -101 -148 0 -92 47 -131 158 -129 69
1 67 0 76 31 7 21 5 22 -43 16 -67 -8 -98 2 -116 37 -29 57 -25 60 85 60 l100
0 0 35 c0 68 -75 114 -159 98z m83 -59 c34 -33 20 -44 -55 -44 -73 0 -75 2
-41 43 19 21 75 22 96 1z"/>
<path d="M19304 3962 c-54 -26 -78 -75 -72 -148 6 -65 33 -99 91 -115 41 -11
137 -3 137 11 0 5 3 15 6 24 5 13 -2 14 -44 9 -68 -8 -99 2 -117 37 -29 57
-25 60 85 60 l100 0 0 30 c0 38 -16 73 -41 88 -36 23 -101 24 -145 4z m110
-48 c33 -32 20 -44 -49 -44 -69 0 -79 8 -48 42 20 22 76 24 97 2z"/>
<path d="M19995 3961 c-50 -23 -75 -65 -75 -126 0 -101 45 -141 158 -139 69 1
67 0 76 31 7 21 5 22 -43 16 -67 -8 -98 2 -116 37 -29 57 -25 60 85 60 l100 0
0 34 c0 44 -32 83 -78 96 -50 13 -60 13 -107 -9z m109 -47 c33 -32 20 -44 -49
-44 -69 0 -79 8 -48 42 20 22 76 24 97 2z"/>
<path d="M20284 3966 c-61 -27 -59 -70 6 -132 69 -66 66 -88 -12 -92 -32 -2
-58 -6 -58 -10 1 -49 154 -51 180 -2 20 38 11 63 -41 112 -64 60 -63 82 4 86
38 2 47 7 47 21 0 13 -10 20 -37 25 -50 8 -53 7 -89 -8z"/>
<path d="M20865 3964 c-63 -32 -61 -70 5 -131 70 -64 66 -87 -12 -91 -32 -2
-58 -6 -58 -10 1 -49 154 -51 180 -2 20 38 11 63 -41 112 -65 61 -63 82 8 86
44 3 50 6 46 21 -3 12 -18 21 -41 25 -51 8 -53 8 -87 -10z"/>
<path d="M17250 3938 c-1 -49 -10 -200 -15 -220 -2 -15 4 -18 36 -18 l39 0 0
104 c0 57 3 118 6 135 6 30 6 31 -30 31 -34 0 -36 -2 -36 -32z"/>
<path d="M17726 3948 c-3 -13 -6 -67 -6 -120 0 -95 1 -98 27 -115 38 -25 107
-22 136 5 29 27 37 28 37 2 0 -16 7 -20 30 -20 30 0 30 1 30 53 0 28 3 89 7
135 l6 83 -34 -3 c-19 -2 -34 -5 -34 -8 1 -3 -2 -42 -5 -87 -7 -95 -24 -123
-75 -123 -57 0 -68 24 -60 129 l8 91 -31 0 c-22 0 -31 -5 -36 -22z"/>
<path d="M18380 3945 c0 -24 2 -25 68 -25 37 0 62 -4 57 -8 -6 -4 -41 -41 -78
-83 -47 -53 -67 -84 -67 -103 l0 -26 105 0 105 0 0 26 c0 24 -3 25 -42 23 -97
-6 -97 -7 -19 79 57 62 71 83 71 110 l0 32 -100 0 -100 0 0 -25z"/>
<path d="M20486 3939 c-9 -49 -7 -188 4 -209 22 -42 121 -48 156 -9 22 24 34
24 34 -1 0 -16 7 -20 30 -20 29 0 30 2 30 43 0 24 3 85 6 135 l7 92 -30 0
c-27 0 -31 -4 -37 -37 -3 -21 -6 -59 -6 -84 0 -62 -28 -99 -75 -99 -55 0 -67
27 -59 132 l7 88 -30 0 c-26 0 -31 -5 -37 -31z"/>
<path d="M13125 3365 c0 -302 1 -428 2 -278 2 149 2 397 0 550 -1 153 -2 31
-2 -272z"/>
<path d="M12991 3380 c0 -289 3 -533 7 -542 4 -10 6 222 4 515 -1 293 -4 537
-6 542 -3 6 -4 -226 -5 -515z"/>
<path d="M23051 3884 c0 -11 3 -14 6 -6 3 7 2 16 -1 19 -3 4 -6 -2 -5 -13z"/>
<path d="M5535 3861 c-40 -17 -59 -50 -63 -111 -4 -58 -5 -59 -36 -62 -23 -2
-31 -8 -31 -23 0 -15 8 -21 33 -23 l32 -3 0 -170 0 -169 30 0 30 0 0 170 0
170 51 0 c47 0 50 2 47 23 -3 19 -10 22 -52 25 l-49 3 7 52 c7 63 26 80 79 72
33 -6 37 -4 37 14 0 35 -63 53 -115 32z"/>
<path d="M5070 3755 l0 -106 -31 22 c-72 51 -165 29 -209 -51 -19 -36 -24 -59
-25 -120 0 -41 3 -87 8 -102 12 -45 64 -97 104 -104 43 -8 103 9 128 36 24 27
35 25 35 -6 0 -22 4 -25 28 -22 l27 3 0 275 0 275 -32 3 -33 3 0 -106z m-35
-146 c35 -31 35 -32 35 -114 l0 -84 -37 -30 c-64 -53 -132 -36 -153 37 -21 78
-4 179 37 210 30 22 80 14 118 -19z"/>
<path d="M6630 3579 l0 -280 27 3 c19 2 29 10 33 27 5 22 6 22 19 7 41 -49
118 -59 172 -23 53 35 79 97 79 187 -1 124 -41 185 -130 197 -33 5 -49 0 -90
-25 l-50 -31 0 109 0 110 -30 0 -30 0 0 -281z m231 35 c21 -22 24 -37 27 -107
3 -73 1 -86 -20 -117 -19 -28 -31 -36 -60 -38 -30 -3 -44 3 -77 34 -41 36 -41
37 -41 109 0 72 0 73 40 109 50 45 95 49 131 10z"/>
<path d="M7066 3844 c-3 -9 -6 -127 -6 -264 0 -137 3 -255 6 -264 4 -10 18
-16 35 -16 l29 0 0 280 0 280 -29 0 c-17 0 -31 -6 -35 -16z"/>
<path d="M22925 3380 c0 -267 1 -376 2 -242 2 133 2 351 0 485 -1 133 -2 24
-2 -243z"/>
<path d="M23055 3380 c0 -267 1 -376 2 -242 2 133 2 351 0 485 -1 133 -2 24
-2 -243z"/>
<path d="M5259 3816 c-15 -33 4 -58 40 -54 22 3 26 8 26 38 0 31 -3 35 -27 38
-22 3 -30 -2 -39 -22z"/>
<path d="M5700 3821 c-16 -32 4 -63 38 -59 24 3 27 7 27 38 0 31 -3 35 -27 38
-19 2 -30 -3 -38 -17z"/>
<path d="M575 3808 c-3 -7 -4 -124 -3 -258 l3 -245 89 -3 c199 -6 290 64 303
234 7 89 -8 148 -49 198 -51 63 -97 80 -225 84 -89 3 -114 1 -118 -10z m257
-80 c50 -38 73 -108 65 -195 -12 -120 -71 -172 -194 -173 l-63 0 0 201 0 201
78 -3 c67 -3 84 -8 114 -31z"/>
<path d="M1480 3741 c0 -49 -1 -50 -32 -53 -25 -2 -34 -8 -36 -25 -3 -18 2
-22 30 -25 l33 -3 5 -148 c5 -148 5 -149 33 -173 48 -41 145 -26 135 21 -3 16
-10 19 -46 17 -37 -3 -43 -1 -52 23 -5 14 -10 80 -10 146 l0 119 56 0 c52 0
55 1 52 23 -3 19 -10 22 -55 25 l-53 3 0 50 c0 48 -1 49 -30 49 -29 0 -30 -1
-30 -49z"/>
<path d="M1116 3685 c-50 -18 -64 -37 -47 -63 7 -11 14 -11 42 4 19 9 56 18
82 18 58 1 87 -26 87 -80 l0 -34 -52 0 c-117 0 -178 -44 -178 -126 0 -34 6
-51 29 -76 26 -30 35 -33 84 -33 42 0 63 6 86 23 37 27 41 27 41 2 0 -15 7
-20 25 -20 l25 0 0 163 c0 134 -3 167 -16 186 -34 48 -128 65 -208 36z m164
-249 c0 -36 -5 -48 -26 -65 -14 -11 -35 -23 -46 -26 -51 -17 -105 29 -92 79 9
36 48 55 112 56 l52 0 0 -44z"/>
<path d="M1804 3681 c-79 -36 -119 -139 -97 -246 15 -71 42 -109 93 -129 79
-32 160 -15 213 44 41 45 51 83 45 180 -3 59 -8 74 -34 107 -50 62 -140 80
-220 44z m137 -51 c32 -18 49 -64 49 -135 0 -101 -32 -144 -105 -145 -49 0
-83 22 -101 66 -29 70 -11 174 37 208 26 18 90 21 120 6z"/>
<path d="M2202 3683 c-35 -17 -62 -58 -62 -93 0 -46 30 -80 97 -113 79 -38 98
-61 80 -96 -18 -36 -59 -46 -110 -29 -71 25 -72 25 -72 -2 0 -47 101 -76 172
-49 66 25 98 90 72 150 -9 24 -29 39 -87 67 -80 39 -102 65 -83 101 20 36 69
38 149 5 8 -4 12 4 12 21 0 48 -101 72 -168 38z"/>
<path d="M2805 3688 c-11 -6 -32 -22 -47 -36 l-28 -26 0 33 c0 29 -2 32 -27
29 l-28 -3 0 -190 0 -190 30 0 30 0 3 137 3 136 35 31 c49 44 97 43 124 -1 17
-29 20 -51 20 -170 l0 -138 30 0 30 0 0 151 c0 120 -3 158 -17 186 -25 54
-106 80 -158 51z"/>
<path d="M3184 3681 c-79 -36 -119 -139 -97 -246 15 -71 42 -109 93 -129 79
-32 160 -15 213 44 41 45 51 83 45 180 -3 59 -8 74 -34 107 -50 62 -140 80
-220 44z m137 -51 c32 -18 49 -64 49 -135 0 -101 -32 -144 -105 -145 -49 0
-83 22 -101 66 -29 70 -11 174 37 208 26 18 90 21 120 6z"/>
<path d="M3865 3688 c-11 -6 -32 -22 -47 -36 l-28 -26 0 33 c0 29 -2 32 -27
29 l-28 -3 0 -190 0 -190 30 0 30 0 3 135 3 135 31 32 c38 40 85 44 114 12 17
-18 19 -40 22 -170 l3 -149 30 0 29 0 0 135 0 134 35 36 c27 26 44 35 70 35
56 0 65 -23 65 -176 0 -73 3 -139 6 -148 4 -10 18 -16 35 -16 l29 0 0 145 c0
155 -8 193 -50 230 -15 14 -36 20 -70 20 -39 0 -55 -6 -89 -33 l-40 -32 -16
23 c-28 43 -96 60 -140 35z"/>
<path d="M4463 3679 c-51 -25 -80 -68 -93 -140 -24 -124 34 -229 133 -244 139
-21 221 55 221 205 0 61 -4 83 -24 117 -43 78 -150 105 -237 62z m157 -67 c52
-53 52 -181 0 -234 -37 -37 -106 -40 -145 -5 -55 48 -55 188 0 243 36 36 107
34 145 -4z"/>
<path d="M5985 3693 c-38 -10 -77 -46 -96 -87 -27 -59 -26 -176 2 -232 34 -71
125 -103 202 -71 42 18 59 40 55 72 l-3 26 -34 -25 c-104 -77 -199 16 -171
166 17 91 90 125 167 79 35 -22 43 -19 43 15 0 14 -10 30 -26 40 -26 18 -104
27 -139 17z"/>
<path d="M6290 3689 c-47 -14 -60 -27 -60 -56 0 -20 4 -24 18 -18 125 54 192
35 192 -52 l0 -33 -51 0 c-114 0 -179 -45 -179 -124 0 -50 21 -83 66 -102 49
-20 86 -17 128 11 45 30 46 30 46 4 0 -16 5 -20 28 -17 l27 3 3 136 c3 153 -7
200 -50 232 -32 24 -116 32 -168 16z m148 -256 c-3 -41 -7 -50 -37 -70 -60
-40 -121 -20 -121 40 0 56 29 76 108 77 l53 0 -3 -47z"/>
<path d="M7335 3686 c-73 -32 -110 -112 -103 -217 6 -85 30 -127 88 -157 78
-40 221 -17 228 37 3 21 1 23 -20 17 -84 -23 -119 -27 -154 -16 -40 14 -74 60
-74 102 l0 27 128 3 127 3 3 47 c4 58 -19 110 -61 140 -37 27 -120 34 -162 14z
m114 -51 c16 -8 34 -28 40 -46 20 -59 20 -59 -90 -59 l-101 0 6 33 c7 39 57
87 92 87 14 0 38 -7 53 -15z"/>
<path d="M7714 3686 c-43 -19 -64 -53 -64 -101 0 -51 29 -80 113 -118 61 -28
73 -43 63 -82 -4 -17 -17 -28 -45 -36 -33 -10 -44 -8 -86 10 -26 11 -49 21
-51 21 -2 0 -4 -13 -4 -29 0 -24 6 -31 40 -45 74 -29 159 -14 194 35 21 30 21
98 0 128 -9 13 -42 34 -73 48 -31 14 -64 32 -73 40 -25 22 -22 59 4 77 28 20
59 20 103 2 l35 -15 0 29 c0 23 -6 30 -31 39 -42 15 -87 13 -125 -3z"/>
<path d="M5265 3678 c-3 -8 -4 -95 -3 -193 l3 -180 30 0 30 0 0 190 0 190 -28
3 c-16 2 -29 -2 -32 -10z"/>
<path d="M5705 3678 c-3 -8 -4 -95 -3 -193 l3 -180 30 0 30 0 0 190 0 190 -28
3 c-16 2 -29 -2 -32 -10z"/>
<path d="M18256 3414 c-9 -24 -7 -34 7 -34 14 0 47 31 47 43 0 14 -48 6 -54
-9z"/>
<path d="M15034 3348 c-20 -40 -52 -101 -70 -135 -19 -33 -34 -64 -34 -67 0
-3 13 -6 28 -6 24 0 31 7 49 50 l21 50 61 0 60 0 18 -50 c15 -44 21 -50 45
-50 l28 0 -36 98 c-20 53 -43 116 -51 140 -14 38 -18 42 -49 42 -32 0 -36 -4
-70 -72z m89 -23 l16 -45 -44 0 -45 0 22 45 c12 25 25 45 29 45 4 0 14 -20 22
-45z"/>
<path d="M15800 3400 c0 -15 7 -20 25 -20 18 0 25 5 25 20 0 15 -7 20 -25 20
-18 0 -25 -5 -25 -20z"/>
<path d="M15896 3328 c-3 -50 -6 -113 -6 -140 0 -45 2 -48 25 -48 24 0 25 2
25 73 0 39 3 102 7 140 6 66 6 67 -19 67 -24 0 -25 -2 -32 -92z"/>
<path d="M16000 3400 c0 -15 7 -20 25 -20 18 0 25 5 25 20 0 15 -7 20 -25 20
-18 0 -25 -5 -25 -20z"/>
<path d="M16740 3382 l0 -38 -47 0 c-58 0 -97 -24 -112 -66 -17 -47 -13 -74
13 -104 28 -34 84 -38 116 -9 20 18 20 18 20 -3 0 -17 6 -22 25 -22 24 0 25 2
25 73 0 39 3 102 7 140 l6 67 -27 0 c-24 0 -26 -4 -26 -38z m-7 -121 c-3 -52
-26 -81 -63 -81 -39 0 -54 22 -47 68 8 45 31 64 77 60 35 -3 35 -3 33 -47z"/>
<path d="M17307 3411 c-45 -10 -95 -57 -107 -101 -31 -114 51 -181 201 -164
l59 7 0 73 0 74 -50 0 c-43 0 -50 -3 -50 -20 0 -15 7 -20 26 -20 23 0 25 -3
22 -37 l-3 -38 -52 -3 c-45 -3 -56 1 -78 22 -17 17 -25 36 -25 60 0 82 50 122
143 114 49 -4 57 -2 57 12 0 25 -76 37 -143 21z"/>
<path d="M18070 3400 c0 -15 7 -20 25 -20 18 0 25 5 25 20 0 15 -7 20 -25 20
-18 0 -25 -5 -25 -20z"/>
<path d="M18940 3382 l0 -38 -47 0 c-58 0 -97 -24 -112 -66 -17 -47 -13 -74
13 -104 28 -34 84 -38 116 -9 20 18 20 18 20 -3 0 -17 6 -22 25 -22 24 0 25 2
25 73 0 39 3 102 7 140 l6 67 -27 0 c-24 0 -26 -4 -26 -38z m-8 -122 c-4 -54
-25 -80 -63 -80 -49 0 -65 57 -28 104 17 22 28 27 58 24 l36 -3 -3 -45z"/>
<path d="M19860 3378 c0 -24 -3 -87 -7 -140 l-6 -98 26 0 c27 0 27 1 27 73 0
39 3 102 7 140 l6 67 -27 0 c-24 0 -26 -3 -26 -42z"/>
<path d="M19960 3400 c0 -15 7 -20 25 -20 18 0 25 5 25 20 0 15 -7 20 -25 20
-18 0 -25 -5 -25 -20z"/>
<path d="M20210 3382 l0 -38 -47 0 c-62 0 -91 -17 -110 -61 -18 -44 -11 -93
18 -119 26 -23 82 -23 109 1 20 18 20 18 20 -3 0 -17 6 -22 25 -22 24 0 25 2
25 73 0 39 3 102 7 140 l6 67 -27 0 c-24 0 -26 -4 -26 -38z m-7 -121 c-2 -52
-25 -81 -64 -81 -35 0 -53 30 -45 73 8 39 33 57 76 54 35 -2 35 -2 33 -46z"/>
<path d="M20730 3382 l0 -38 -47 0 c-29 0 -59 -7 -75 -18 -51 -33 -60 -123
-17 -162 26 -23 82 -23 109 1 20 18 20 18 20 -3 0 -17 6 -22 25 -22 24 0 25 2
25 73 0 39 3 102 7 140 l6 67 -27 0 c-24 0 -26 -4 -26 -38z m-7 -121 c-2 -52
-25 -81 -64 -81 -49 0 -65 57 -28 104 17 22 28 27 58 24 36 -3 36 -3 34 -47z"/>
<path d="M17941 3383 c3 -21 -2 -33 -16 -33 -8 0 -15 -9 -15 -20 0 -12 7 -20
16 -20 15 0 16 -9 10 -69 -6 -65 -4 -71 16 -85 29 -20 52 -20 72 0 23 22 20
32 -8 27 -30 -6 -41 21 -31 83 5 38 9 44 31 44 17 0 24 5 24 20 0 15 -7 20
-25 20 -18 0 -25 5 -25 20 0 15 -7 20 -25 20 -14 0 -24 -3 -24 -7z"/>
<path d="M15275 3327 c-3 -12 -5 -54 -3 -92 3 -66 4 -71 33 -84 26 -12 35 -12
72 1 36 13 43 13 43 2 0 -8 10 -14 25 -14 24 0 25 2 25 74 0 40 3 88 6 105 6
28 4 31 -20 31 -24 0 -26 -3 -26 -45 0 -25 -7 -62 -15 -81 -13 -33 -17 -35
-52 -32 l-38 3 0 78 c0 73 -1 77 -22 77 -15 0 -25 -8 -28 -23z"/>
<path d="M15575 3301 l34 -50 -45 -55 -45 -56 28 0 c20 0 37 10 59 36 l30 37
22 -37 c17 -29 27 -36 53 -36 l31 0 -36 50 c-20 28 -36 55 -36 61 0 6 16 31
36 55 l36 44 -26 0 c-17 0 -36 -11 -52 -27 l-24 -28 -21 28 c-14 18 -30 27
-50 27 l-29 0 35 -49z"/>
<path d="M15796 3289 c-3 -34 -6 -82 -6 -105 0 -40 2 -44 25 -44 25 0 25 1 25
83 0 45 3 92 6 105 5 18 2 22 -18 22 -23 0 -26 -4 -32 -61z"/>
<path d="M15996 3298 c-3 -29 -6 -77 -6 -105 0 -50 1 -53 25 -53 25 0 25 1 25
83 0 45 3 92 6 105 5 18 2 22 -18 22 -23 0 -26 -5 -32 -52z"/>
<path d="M16153 3343 c-18 -2 -33 -10 -33 -17 0 -10 13 -12 50 -8 40 4 51 1
56 -12 9 -24 -11 -43 -57 -50 -48 -8 -90 -45 -83 -74 10 -36 96 -58 107 -28 4
11 -3 16 -25 18 -17 2 -33 8 -35 15 -5 14 31 38 70 47 27 6 27 6 27 -44 0 -47
2 -50 25 -50 25 0 25 0 25 94 l0 94 -31 11 c-18 6 -39 10 -48 9 -9 0 -31 -3
-48 -5z"/>
<path d="M16341 3245 c-2 -104 -2 -105 22 -105 22 0 24 4 26 62 2 67 19 98 53
98 13 0 18 7 18 25 0 29 -16 32 -48 9 -20 -14 -22 -14 -22 0 0 10 -9 16 -23
16 -23 0 -24 -2 -26 -105z"/>
<path d="M16905 3336 c-39 -17 -55 -37 -62 -79 -8 -52 18 -94 67 -107 47 -13
106 -4 114 16 4 11 -6 14 -49 14 -44 0 -57 4 -69 22 -30 42 -22 48 65 48 l81
0 -7 28 c-3 15 -14 35 -23 44 -24 23 -81 31 -117 14z m93 -48 c3 -15 -4 -18
-47 -18 -28 0 -51 4 -51 8 0 34 92 43 98 10z"/>
<path d="M17575 3343 c-78 -20 -97 -147 -28 -184 34 -18 122 -17 134 2 7 11
-2 15 -46 17 -43 2 -58 8 -70 25 -29 41 -21 47 66 47 l81 0 -7 28 c-3 15 -14
35 -23 44 -18 18 -75 29 -107 21z m73 -45 c22 -22 12 -28 -45 -28 -55 0 -56 0
-38 20 20 22 64 27 83 8z"/>
<path d="M17780 3337 c-40 -20 -37 -49 11 -94 48 -46 45 -63 -12 -63 -27 0
-39 -4 -39 -14 0 -19 61 -29 96 -16 57 22 58 51 3 101 -46 42 -44 59 7 59 44
0 46 25 3 34 -41 8 -40 8 -69 -7z"/>
<path d="M18070 3333 c0 -10 -3 -57 -7 -105 l-6 -88 27 0 26 0 0 89 c0 49 3
96 6 105 5 12 0 16 -20 16 -18 0 -26 -5 -26 -17z"/>
<path d="M18213 3336 c-92 -42 -78 -170 21 -190 48 -10 104 11 121 45 24 45
16 108 -15 131 -34 25 -88 31 -127 14z m95 -38 c17 -17 15 -84 -4 -102 -23
-24 -70 -20 -88 6 -34 48 -7 108 48 108 17 0 37 -5 44 -12z"/>
<path d="M18410 3333 c0 -10 -3 -57 -7 -105 l-6 -88 27 0 c25 0 26 2 26 58 0
66 19 102 55 102 50 0 55 -7 55 -86 0 -73 0 -74 25 -74 l26 0 -3 92 c-3 90 -4
93 -31 106 -31 15 -79 8 -102 -15 -13 -13 -15 -12 -15 6 0 27 -50 31 -50 4z"/>
<path d="M19120 3341 c-30 -8 -70 -65 -70 -98 0 -45 27 -82 70 -93 47 -13 106
-4 114 16 4 11 -6 14 -49 14 -44 0 -57 4 -69 22 -30 42 -22 48 64 48 l80 0 -6
28 c-4 15 -14 35 -23 44 -19 20 -76 30 -111 19z m88 -53 c3 -16 -5 -18 -54
-18 -57 0 -57 0 -39 20 24 27 88 25 93 -2z"/>
<path d="M19448 3339 c-28 -11 -58 -62 -58 -99 0 -62 65 -109 130 -95 45 10
39 35 -9 35 -30 0 -44 6 -55 22 -37 53 -4 108 64 108 27 0 40 4 40 14 0 24
-62 33 -112 15z"/>
<path d="M19658 3343 c-16 -2 -28 -10 -28 -17 0 -10 13 -12 50 -8 40 4 51 1
56 -12 9 -24 -11 -43 -54 -51 -20 -3 -47 -13 -59 -21 -47 -30 -14 -94 48 -94
41 0 46 28 6 32 -42 4 -48 31 -10 46 73 28 73 28 73 -27 0 -48 2 -51 25 -51
25 0 25 0 25 94 l0 94 -31 11 c-32 11 -50 12 -101 4z"/>
<path d="M19960 3322 c0 -16 -3 -63 -6 -105 l-7 -77 27 0 26 0 0 83 c0 45 3
92 6 105 5 19 2 22 -20 22 -22 0 -26 -4 -26 -28z"/>
<path d="M20378 3343 c-51 -8 -32 -29 25 -28 46 0 52 -2 55 -22 3 -18 -4 -24
-40 -33 -64 -16 -86 -27 -98 -50 -9 -17 -7 -24 14 -45 28 -28 80 -34 89 -11 4
11 -3 16 -25 18 -17 2 -33 8 -35 15 -5 14 31 38 70 47 27 6 27 6 27 -44 0 -47
2 -50 25 -50 25 0 25 0 25 94 l0 94 -31 11 c-32 11 -50 12 -101 4z"/>
<path d="M16067 2963 c-20 -35 -137 -263 -137 -267 0 -3 11 -6 25 -6 20 0 30
10 50 50 l25 50 59 0 c63 0 65 -2 86 -77 5 -17 14 -23 35 -23 l29 0 -30 83
c-18 45 -41 108 -52 140 -19 54 -22 57 -53 57 -18 0 -35 -3 -37 -7z m56 -88
l16 -45 -45 0 c-25 0 -44 3 -42 8 3 4 13 26 23 49 10 23 21 40 25 38 5 -3 15
-25 23 -50z"/>
<path d="M17686 2878 c-3 -50 -6 -113 -6 -140 0 -45 2 -48 25 -48 l25 0 0 103
c1 56 3 119 6 140 5 34 4 37 -19 37 -23 0 -24 -3 -31 -92z"/>
<path d="M17790 2950 c0 -15 7 -20 25 -20 18 0 25 5 25 20 0 15 -7 20 -25 20
-18 0 -25 -5 -25 -20z"/>
<path d="M19161 2836 c-39 -74 -71 -137 -71 -140 0 -3 11 -6 25 -6 20 0 30 10
50 50 l25 50 60 0 59 0 18 -50 c15 -43 21 -50 45 -50 l27 0 -23 63 c-13 34
-36 97 -51 140 -27 75 -28 77 -60 77 -33 0 -35 -3 -104 -134z m122 39 l16 -45
-44 0 -43 0 21 49 c11 28 24 48 28 45 4 -2 14 -24 22 -49z"/>
<path d="M18420 2920 c0 -11 -7 -20 -15 -20 -8 0 -15 -9 -15 -20 0 -12 7 -20
16 -20 14 0 15 -9 10 -63 -4 -34 -4 -70 -1 -79 12 -31 95 -34 95 -3 0 7 -10
15 -22 17 -21 3 -23 9 -26 66 l-3 62 31 0 c23 0 30 4 30 20 0 15 -7 20 -25 20
-18 0 -25 5 -25 20 0 15 -7 20 -25 20 -18 0 -25 -5 -25 -20z"/>
<path d="M16350 2893 c-39 -12 -63 -30 -76 -55 -51 -98 48 -191 129 -120 16
14 17 13 17 -11 0 -14 -3 -32 -6 -41 -6 -15 -152 -16 -1560 -16 -855 0 -1554
-3 -1554 -7 0 -5 704 -8 1564 -8 860 0 1562 3 1559 8 -5 8 11 10 19 2 7 -7
2487 -7 2499 0 5 4 9 1 9 -5 0 -6 5 -8 10 -5 6 4 8 10 6 14 -3 4 4 20 15 37
25 38 24 44 -6 44 -20 0 -25 -6 -31 -35 -3 -19 -10 -37 -14 -40 -5 -3 -561 -5
-1236 -5 l-1227 0 2 97 c1 54 4 107 7 119 5 19 0 22 -42 28 -52 7 -62 7 -84
-1z m75 -52 c8 -25 -4 -71 -23 -93 -17 -21 -62 -24 -80 -6 -19 19 -14 76 8 98
27 27 86 27 95 1z"/>
<path d="M16546 2884 c-11 -30 -7 -161 7 -172 25 -21 66 -24 98 -8 39 20 39
20 39 1 0 -9 9 -15 25 -15 25 0 25 1 25 83 0 45 3 92 6 105 5 19 2 22 -20 22
-23 0 -26 -4 -27 -37 -2 -98 -20 -126 -74 -121 l-30 3 -3 78 c-2 67 -5 77 -21
77 -11 0 -22 -7 -25 -16z"/>
<path d="M16868 2893 c-14 -2 -29 -10 -31 -17 -4 -10 9 -13 51 -12 51 1 57 -1
57 -19 0 -15 -12 -24 -55 -37 -62 -20 -91 -48 -83 -79 9 -35 95 -55 106 -25 4
11 -3 16 -26 18 -21 2 -33 9 -35 20 -3 18 13 28 71 42 27 6 27 6 27 -44 0 -47
2 -50 25 -50 25 0 25 1 25 89 0 65 -4 92 -15 101 -16 13 -76 20 -117 13z"/>
<path d="M17090 2887 c-42 -21 -38 -56 11 -98 49 -42 46 -59 -12 -59 -49 0
-54 -25 -6 -34 39 -7 93 9 101 30 8 21 -10 54 -47 85 -36 31 -29 49 19 49 44
0 46 25 3 34 -41 8 -40 8 -69 -7z"/>
<path d="M17278 2889 c-27 -10 -58 -62 -58 -97 0 -65 59 -110 127 -97 48 9 44
35 -5 35 -64 0 -93 56 -56 108 12 17 25 22 60 22 31 0 44 4 44 14 0 24 -62 33
-112 15z"/>
<path d="M17488 2893 c-16 -2 -28 -10 -28 -17 0 -10 13 -12 50 -8 40 4 51 1
56 -12 9 -24 -11 -43 -57 -50 -50 -8 -90 -45 -82 -76 6 -23 39 -40 79 -40 34
0 31 28 -3 32 -36 4 -43 35 -11 47 13 4 35 11 51 15 27 6 27 6 27 -44 0 -47 2
-50 25 -50 25 0 25 1 25 89 0 65 -4 92 -15 101 -16 13 -76 20 -117 13z"/>
<path d="M17789 2898 c0 -2 -2 -41 -5 -88 -3 -47 -7 -93 -9 -102 -2 -14 4 -18
25 -18 l29 0 3 105 c3 103 3 105 -19 105 -13 0 -23 -1 -24 -2z"/>
<path d="M17955 2893 c-72 -18 -98 -121 -43 -172 37 -35 148 -39 148 -5 0 10
-13 14 -48 14 -51 0 -82 20 -82 53 0 14 12 17 75 17 l75 0 0 28 c0 16 -8 36
-17 45 -20 17 -77 28 -108 20z m75 -48 c18 -22 9 -27 -51 -23 -50 3 -52 4 -35
21 22 21 69 22 86 2z"/>
<path d="M18138 2883 c-2 -10 -5 -57 -7 -105 -3 -82 -1 -88 17 -88 22 0 32 25
32 80 0 45 24 80 55 80 50 0 55 -7 55 -86 0 -72 1 -74 25 -74 25 0 25 1 25 89
0 70 -3 91 -16 102 -23 19 -89 17 -111 -4 -26 -23 -37 -22 -30 3 4 16 0 20
-18 20 -13 0 -24 -7 -27 -17z"/>
<path d="M18600 2891 c-30 -8 -70 -65 -70 -98 0 -45 27 -82 70 -93 48 -13 110
-4 110 16 0 10 -14 14 -48 14 -51 0 -82 20 -82 53 0 14 12 17 75 17 l75 0 0
28 c0 16 -8 36 -17 45 -22 19 -79 28 -113 18z m74 -37 c9 -3 16 -12 16 -20 0
-10 -15 -14 -55 -14 -30 0 -55 2 -55 4 0 3 7 12 16 20 16 16 50 21 78 10z"/>
<path d="M18820 2893 c-19 -7 -40 -33 -40 -50 0 -8 19 -31 41 -52 48 -44 45
-61 -12 -61 -53 0 -53 -26 0 -35 39 -6 78 6 93 29 13 19 -2 50 -40 82 -41 35
-37 54 14 54 44 0 46 25 3 34 -35 7 -38 7 -59 -1z"/>
<path d="M19515 2894 c-39 -10 -67 -29 -81 -56 -51 -98 48 -191 129 -120 16
14 17 12 17 -26 0 -35 -3 -42 -19 -42 -10 0 -21 -7 -25 -15 -5 -13 -2 -13 25
0 16 9 38 13 48 10 17 -5 19 3 20 97 1 57 4 113 8 126 4 17 1 22 -13 22 -11 0
-35 2 -54 4 -19 3 -44 2 -55 0z m68 -83 c-2 -51 -25 -81 -63 -81 -35 0 -50 17
-50 57 0 47 31 75 78 71 37 -3 37 -3 35 -47z"/>
<path d="M19740 2887 c-41 -20 -37 -51 11 -95 48 -45 45 -62 -12 -62 -27 0
-39 -4 -39 -14 0 -20 54 -30 94 -16 58 19 57 54 -2 106 -41 36 -36 54 14 54
44 0 46 25 3 34 -41 8 -40 8 -69 -7z"/>
<path d="M22922 2870 c0 -14 2 -19 5 -12 2 6 2 18 0 25 -3 6 -5 1 -5 -13z"/>
<path d="M23051 2864 c0 -11 3 -14 6 -6 3 7 2 16 -1 19 -3 4 -6 -2 -5 -13z"/>
<path d="M22917 2783 c-4 -3 -7 -13 -7 -22 1 -13 3 -13 11 2 11 19 8 33 -4 20z"/>
<path d="M13140 2754 c0 -5 7 -18 15 -28 8 -11 15 -16 15 -10 0 5 -7 18 -15
28 -8 11 -15 16 -15 10z"/>
<path d="M22889 2723 c-13 -16 -12 -17 4 -4 16 13 21 21 13 21 -2 0 -10 -8
-17 -17z"/>
<path d="M13020 2724 c0 -6 7 -19 16 -30 14 -18 14 -18 3 6 -14 31 -19 36 -19
24z"/>
<path d="M23007 2700 c-9 -11 -13 -20 -7 -20 5 0 14 9 20 20 6 11 9 20 8 20
-2 0 -11 -9 -21 -20z"/>
<path d="M13187 2689 c7 -7 15 -10 18 -7 3 3 -2 9 -12 12 -14 6 -15 5 -6 -5z"/>
<path d="M22840 2680 c-9 -6 -10 -10 -3 -10 6 0 15 5 18 10 8 12 4 12 -15 0z"/>
<path d="M13056 2662 c-3 -5 3 -16 14 -25 17 -14 19 -14 17 3 -1 11 -6 16 -16
12 -9 -3 -12 -1 -7 6 4 7 5 12 2 12 -3 0 -7 -4 -10 -8z"/>
<path d="M22794 2654 c-18 -14 -18 -15 4 -4 12 6 22 13 22 15 0 8 -5 6 -26
-11z"/>
<path d="M18980 2639 c0 -5 5 -7 10 -4 6 3 10 8 10 11 0 2 -4 4 -10 4 -5 0
-10 -5 -10 -11z"/>
<path d="M19153 2643 c70 -2 184 -2 255 0 70 1 12 3 -128 3 -140 0 -198 -2
-127 -3z"/>
<path d="M19642 2645 c3 -3 703 -5 1556 -5 1201 0 1551 -3 1554 -12 3 -8 7 -6
11 5 6 16 -95 17 -1560 17 -862 0 -1564 -2 -1561 -5z"/>
<path d="M22953 2623 c0 -9 4 -10 14 -2 7 6 13 12 13 14 0 1 -6 2 -13 2 -8 0
-14 -6 -14 -14z"/>
<path d="M13110 2603 c6 -13 20 -27 33 -33 20 -10 21 -10 4 4 -10 8 -25 23
-33 33 -14 17 -14 16 -4 -4z"/>
<path d="M15447 2393 c-12 -173 -11 -183 18 -183 23 0 25 3 25 53 0 77 16 102
65 102 l40 0 0 -78 0 -77 28 0 c26 0 27 2 27 49 0 27 3 62 6 79 5 24 1 36 -19
56 -30 30 -65 33 -107 11 l-30 -16 0 51 c0 46 -2 50 -23 50 -23 0 -24 -4 -30
-97z"/>
<path d="M16593 2418 c-22 -40 -59 -112 -84 -160 l-44 -88 -219 0 -218 0 6 23
c3 12 6 28 6 34 0 9 10 8 35 -4 65 -31 128 17 127 97 -1 77 -54 108 -158 95
l-54 -6 0 -104 c0 -57 -3 -110 -6 -119 -5 -14 -40 -16 -290 -16 -246 0 -284
-2 -284 -15 0 -13 38 -15 285 -15 183 0 285 -4 285 -10 0 -5 11 -10 25 -10 14
0 25 5 25 10 0 6 77 10 211 10 137 0 208 -3 204 -10 -3 -5 1 -10 9 -10 8 0 18
5 21 10 3 6 38 10 76 10 44 0 68 -4 64 -10 -3 -5 1 -10 9 -10 8 0 18 5 21 10
4 6 75 10 181 10 114 0 173 -3 169 -10 -4 -6 7 -10 24 -10 17 0 31 5 31 10 0
7 150 10 431 10 369 0 433 -2 445 -15 20 -19 55 -19 80 0 16 12 162 14 1072
15 700 0 1051 -3 1047 -10 -3 -5 1 -10 9 -10 8 0 18 5 21 10 3 6 44 10 91 10
68 0 84 3 84 15 0 12 -15 15 -75 15 -41 0 -75 2 -75 4 0 2 37 75 81 161 60
115 77 156 65 153 -11 -2 -49 -63 -99 -160 l-82 -158 -1052 0 -1052 0 55 120
c30 66 54 122 54 125 0 3 -11 5 -24 5 -20 0 -28 -12 -57 -82 l-34 -81 -25 81
-25 82 -47 0 c-41 0 -48 3 -48 20 0 15 -7 20 -25 20 -18 0 -25 -5 -25 -20 0
-11 -7 -20 -15 -20 -8 0 -15 -9 -15 -20 0 -11 6 -20 14 -20 12 0 14 -13 9 -68
-5 -56 -3 -71 11 -85 20 -19 48 -22 77 -7 28 15 25 38 -5 33 -30 -6 -37 12
-29 77 5 46 8 50 33 50 24 0 28 -6 55 -89 15 -49 25 -96 22 -105 -6 -14 -53
-16 -478 -16 l-472 0 7 119 6 120 -47 7 c-96 14 -169 -37 -167 -118 2 -68 61
-106 117 -77 12 7 25 17 29 23 4 6 8 -8 8 -31 l0 -43 -165 0 c-91 0 -165 2
-165 4 0 2 37 75 81 161 61 117 77 156 64 153 -11 -2 -47 -60 -99 -160 l-81
-158 -67 0 c-38 0 -68 2 -68 4 0 2 36 74 81 160 56 109 76 156 66 156 -9 0
-33 -32 -54 -72z m-453 -57 c25 -47 0 -111 -43 -111 -35 0 -57 29 -57 75 0 51
4 55 51 55 28 0 41 -5 49 -19z m860 -29 c0 -36 -5 -54 -19 -66 -43 -39 -100 7
-80 63 13 34 36 51 71 51 27 0 28 -2 28 -48z"/>
<path d="M17619 2468 c0 -13 -4 -76 -7 -141 l-7 -117 28 0 c26 0 27 1 27 58 0
31 3 94 7 140 l6 82 -27 0 c-20 0 -26 -5 -27 -22z"/>
<path d="M17720 2470 c0 -15 7 -20 25 -20 18 0 25 5 25 20 0 15 -7 20 -25 20
-18 0 -25 -5 -25 -20z"/>
<path d="M18209 2463 c0 -16 -4 -79 -7 -141 l-7 -112 28 0 c17 0 27 5 27 15 0
14 3 13 25 -1 34 -22 88 -11 115 23 22 28 28 100 10 132 -14 27 -64 44 -105
37 l-35 -7 0 41 c0 36 -2 40 -25 40 -20 0 -25 -5 -26 -27z m133 -100 c22 -20
23 -61 2 -91 -20 -28 -69 -30 -84 -3 -11 22 -14 94 -3 104 12 13 67 7 85 -10z"/>
<path d="M18719 2468 c0 -13 -4 -76 -7 -141 l-7 -117 28 0 c26 0 27 1 27 58 0
31 3 94 7 140 l6 82 -27 0 c-20 0 -26 -5 -27 -22z"/>
<path d="M15763 2462 c-15 -2 -23 -10 -23 -23 0 -10 -7 -19 -15 -19 -8 0 -15
-9 -15 -20 0 -11 6 -20 14 -20 12 0 14 -13 9 -68 -5 -56 -3 -71 11 -85 20 -19
48 -22 77 -7 28 15 25 38 -5 33 -30 -6 -37 12 -29 77 l6 50 43 0 43 0 -6 -68
c-5 -56 -3 -71 11 -85 20 -19 48 -22 77 -7 28 15 25 38 -5 33 -29 -6 -35 8
-28 75 4 47 7 52 28 52 17 0 24 6 24 20 0 15 -7 20 -25 20 -20 0 -25 5 -25 24
0 19 -4 22 -25 18 -16 -3 -25 -11 -25 -23 0 -16 -8 -19 -44 -19 -39 0 -45 3
-48 23 -2 16 -9 21 -25 19z"/>
<path d="M16252 2404 c-34 -24 -28 -58 18 -94 48 -38 44 -60 -11 -60 -27 0
-39 -4 -39 -15 0 -23 66 -30 106 -11 46 22 44 50 -7 97 -46 42 -44 59 7 59 39
0 48 24 12 34 -37 10 -62 7 -86 -10z"/>
<path d="M16416 2404 c-11 -28 -7 -34 24 -34 25 0 30 4 30 25 0 20 -5 25 -24
25 -13 0 -27 -7 -30 -16z"/>
<path d="M17090 2331 c0 -82 2 -91 22 -105 28 -20 61 -20 98 -1 27 14 30 14
30 0 0 -9 9 -15 25 -15 23 0 25 4 25 44 0 23 3 71 6 105 7 61 7 61 -19 61 -24
0 -26 -4 -32 -66 -9 -75 -24 -96 -69 -92 l-31 3 0 78 1 77 -28 0 -28 0 0 -89z"/>
<path d="M17413 2413 c-12 -2 -24 -10 -26 -17 -4 -10 9 -13 51 -12 51 1 57 -1
57 -19 0 -15 -13 -24 -55 -38 -73 -23 -98 -48 -82 -81 11 -26 66 -44 97 -32
26 10 16 25 -17 28 -59 5 -37 40 40 63 21 6 22 4 22 -44 0 -48 2 -51 25 -51
25 0 25 0 25 93 0 91 -1 94 -25 105 -25 12 -68 14 -112 5z"/>
<path d="M17715 2408 c-2 -7 -6 -55 -7 -106 l-3 -92 28 0 c27 0 27 0 28 73 1
39 3 87 5 105 3 29 1 32 -21 32 -14 0 -28 -6 -30 -12z"/>
<path d="M18524 2406 c-60 -27 -80 -86 -49 -146 31 -60 153 -63 191 -5 24 37
15 113 -16 137 -34 25 -88 31 -126 14z m96 -45 c26 -50 -2 -111 -50 -111 -53
0 -76 71 -38 117 17 21 76 16 88 -6z"/>
<path d="M18855 2406 c-51 -22 -73 -106 -40 -152 30 -44 134 -57 149 -19 4 11
-6 15 -42 17 -40 3 -49 7 -60 31 -25 51 7 97 69 97 27 0 39 4 39 14 0 28 -64
35 -115 12z"/>
<path d="M19063 2413 c-12 -2 -24 -10 -26 -17 -4 -10 9 -13 51 -12 51 1 57 -1
57 -19 0 -15 -13 -24 -55 -38 -73 -23 -98 -48 -82 -81 11 -26 66 -44 97 -32
26 10 16 25 -17 28 -59 5 -37 40 40 63 21 6 22 4 22 -44 0 -48 2 -51 25 -51
25 0 25 0 25 93 0 91 -1 94 -25 105 -25 12 -68 14 -112 5z"/>
<path d="M19415 2406 c-51 -22 -73 -106 -40 -152 30 -44 134 -57 149 -19 4 11
-6 15 -42 17 -40 3 -49 7 -60 31 -25 51 7 97 69 97 27 0 39 4 39 14 0 28 -64
35 -115 12z"/>
<path d="M19624 2406 c-60 -26 -80 -86 -49 -146 20 -40 79 -58 134 -42 49 15
62 32 68 86 6 54 -9 84 -52 102 -42 17 -61 17 -101 0z m96 -45 c26 -50 -2
-111 -50 -111 -53 0 -76 71 -38 117 17 21 76 16 88 -6z"/>
<path d="M19816 2404 c-3 -9 -6 -56 -6 -105 0 -88 0 -89 25 -89 23 0 25 3 25
53 0 67 17 101 52 105 34 4 42 -21 34 -102 l-6 -56 30 0 30 0 0 63 c0 73 15
101 51 95 23 -3 24 -7 27 -80 3 -75 4 -78 27 -78 22 0 25 4 25 39 0 21 3 59 6
83 5 38 3 49 -15 67 -25 25 -55 27 -94 6 -26 -13 -31 -13 -50 0 -27 19 -58 19
-83 0 -25 -19 -38 -19 -30 0 4 11 -1 15 -18 15 -13 0 -27 -7 -30 -16z"/>
<path d="M16410 2235 c0 -20 5 -25 25 -25 20 0 25 5 25 25 0 20 -5 25 -25 25
-20 0 -25 -5 -25 -25z"/>
<path d="M19260 2235 c0 -20 5 -25 25 -25 20 0 25 5 25 25 0 20 -5 25 -25 25
-20 0 -25 -5 -25 -25z"/>
<path d="M16010 2016 c-198 -46 -385 -162 -495 -308 -61 -82 -119 -197 -147
-295 -31 -107 -32 -357 -2 -443 l19 -55 58 -3 c31 -2 57 0 57 3 0 4 -10 43
-22 88 -28 107 -30 282 -4 377 82 300 353 522 666 547 251 19 523 -114 661
-324 119 -182 155 -400 99 -600 -11 -40 -20 -77 -20 -83 0 -5 22 -10 50 -10
l49 0 16 53 c8 28 20 94 25 146 41 394 -209 768 -595 891 -87 28 -326 37 -415
16z"/>
<path d="M14302 1965 c0 -16 2 -22 5 -12 2 9 2 23 0 30 -3 6 -5 -1 -5 -18z"/>
<path d="M14362 1965 c0 -16 2 -22 5 -12 2 9 2 23 0 30 -3 6 -5 -1 -5 -18z"/>
<path d="M14387 1977 c-3 -8 -2 -20 3 -26 5 -9 8 -4 8 13 0 29 -3 32 -11 13z"/>
<path d="M17150 1950 l0 -40 1715 0 c1873 0 1736 -4 1721 55 l-6 25 -1715 0
-1715 0 0 -40z"/>
<path d="M14251 1964 c0 -11 3 -14 6 -6 3 7 2 16 -1 19 -3 4 -6 -2 -5 -13z"/>
<path d="M14526 1943 c-6 -14 -5 -15 5 -6 7 7 10 15 7 18 -3 3 -9 -2 -12 -12z"/>
<path d="M14151 1920 c14 -31 19 -36 19 -24 0 6 -7 19 -16 30 -14 18 -14 18
-3 -6z"/>
<path d="M14213 1925 c0 -8 4 -12 9 -9 5 3 6 10 3 15 -9 13 -12 11 -12 -6z"/>
<path d="M14586 1924 c-4 -9 -4 -19 -1 -22 2 -3 7 3 11 12 4 9 4 19 1 22 -2 3
-7 -3 -11 -12z"/>
<path d="M14632 1900 c-18 -29 -15 -38 4 -12 9 13 14 25 12 27 -2 2 -9 -5 -16
-15z"/>
<path d="M14080 1896 c0 -8 4 -17 9 -20 5 -4 7 3 4 14 -6 23 -13 26 -13 6z"/>
<path d="M14660 1880 c-6 -11 -9 -20 -8 -20 2 0 11 9 21 20 9 11 13 20 7 20
-5 0 -14 -9 -20 -20z"/>
<path d="M14035 1850 c10 -11 20 -20 23 -20 3 0 -3 9 -13 20 -10 11 -20 20
-23 20 -3 0 3 -9 13 -20z"/>
<path d="M14681 1854 c0 -11 3 -14 6 -6 3 7 2 16 -1 19 -3 4 -6 -2 -5 -13z"/>
<path d="M14709 1843 c-13 -16 -12 -17 3 -5 13 10 17 10 21 0 4 -8 6 -7 6 5 1
9 -3 17 -8 17 -5 0 -15 -8 -22 -17z"/>
<path d="M16068 1853 c-23 -4 -27 -8 -23 -31 2 -15 7 -44 10 -65 3 -21 10 -35
14 -33 5 3 6 17 3 31 -6 31 17 34 43 5 26 -28 40 -25 21 5 -13 20 -14 28 -4
44 9 15 9 23 -1 35 -8 9 -19 15 -25 15 -6 -1 -23 -4 -38 -6z m47 -33 c0 -18
-33 -26 -47 -12 -6 6 -7 15 -3 22 10 16 50 8 50 -10z"/>
<path d="M16236 1836 c-9 -14 -23 -37 -31 -51 -22 -35 -18 -54 6 -26 17 21 23
22 44 13 14 -7 25 -18 25 -27 0 -8 5 -15 10 -15 12 0 12 2 -4 69 -14 63 -28
73 -50 37z m34 -38 c0 -5 -7 -8 -15 -8 -15 0 -20 21 -8 33 7 7 23 -11 23 -25z"/>
<path d="M14000 1836 c0 -2 8 -10 18 -17 15 -13 16 -12 3 4 -13 16 -21 21 -21
13z"/>
<path d="M14160 1769 c1 -35 1 -70 1 -76 -1 -7 -28 -26 -61 -43 -33 -17 -60
-35 -60 -40 0 -18 22 -11 77 26 l54 35 58 -40 c54 -37 71 -41 71 -19 0 4 -27
22 -61 39 l-61 30 4 71 c2 53 0 72 -10 76 -10 3 -13 -11 -12 -59z"/>
<path d="M14599 1823 c0 -5 0 -38 1 -75 l1 -67 -60 -31 c-34 -17 -61 -35 -61
-40 0 -18 19 -11 75 26 l54 36 57 -40 c54 -38 74 -44 74 -22 0 6 -27 23 -61
40 l-60 31 1 62 c1 34 1 68 1 75 -1 13 -20 17 -22 5z"/>
<path d="M14752 1802 c-11 -25 -11 -25 4 -10 9 9 15 21 13 27 -2 6 -10 -2 -17
-17z"/>
<path d="M16374 1774 c-28 -65 -25 -73 34 -81 37 -5 41 -3 57 27 22 43 13 72
-30 93 l-36 17 -25 -56z m71 12 c29 -21 10 -70 -28 -74 -35 -4 -43 17 -22 57
18 35 23 37 50 17z"/>
<path d="M13980 1816 c0 -2 8 -10 18 -17 15 -13 16 -12 3 4 -13 16 -21 21 -21
13z"/>
<path d="M14720 1809 c0 -5 5 -7 10 -4 6 3 10 8 10 11 0 2 -4 4 -10 4 -5 0
-10 -5 -10 -11z"/>
<path d="M15896 1797 c-17 -13 -17 -16 4 -65 19 -45 26 -52 44 -46 11 3 30 15
41 25 16 16 18 22 7 37 -6 9 -16 27 -22 40 -11 25 -46 29 -74 9z m54 -17 c0
-5 -9 -14 -19 -19 -14 -8 -20 -7 -24 3 -3 8 -3 17 0 20 10 10 43 7 43 -4z m26
-42 c4 -6 -1 -17 -11 -25 -24 -17 -32 -17 -39 4 -11 26 35 46 50 21z"/>
<path d="M14448 1727 l-57 -40 -55 36 c-59 39 -76 45 -76 25 1 -7 28 -25 60
-40 l60 -27 0 -75 c0 -62 3 -76 15 -76 13 0 15 11 9 73 l-6 72 61 33 c34 18
61 37 61 42 0 21 -19 15 -72 -23z"/>
<path d="M16544 1716 c-3 -8 2 -28 10 -45 11 -20 12 -32 6 -36 -15 -9 -40 14
-40 36 0 11 -4 19 -10 19 -14 0 -13 -43 2 -58 18 -18 65 -15 72 4 4 9 -1 28
-9 41 -18 28 -11 50 11 32 8 -6 14 -18 14 -25 0 -8 5 -14 10 -14 14 0 13 33
-2 48 -16 16 -57 15 -64 -2z"/>
<path d="M18713 1698 l27 -23 -2 -395 -3 -394 -25 -13 c-21 -11 -7 -13 100
-12 92 0 120 3 104 11 -19 9 -22 21 -28 115 -3 59 -6 123 -6 145 l0 38 93 0
c111 0 159 19 230 88 110 108 117 263 16 364 -87 87 -105 93 -334 96 l-200 3
28 -23z m383 -128 c57 -54 71 -145 31 -220 -32 -61 -73 -80 -169 -80 l-78 0 0
166 0 166 94 -4 c84 -3 97 -6 122 -28z"/>
<path d="M19534 1709 c-101 -29 -177 -125 -177 -224 0 -120 84 -199 291 -275
78 -28 112 -67 112 -128 0 -91 -90 -134 -220 -107 -87 19 -154 19 -170 0 -15
-18 -26 -105 -13 -105 5 0 14 5 20 11 9 9 44 8 143 -6 151 -21 206 -14 282 34
54 34 98 113 98 175 0 119 -54 183 -219 262 -160 77 -181 94 -181 147 0 87 50
117 195 117 126 0 175 25 175 89 0 20 -5 21 -152 20 -84 0 -167 -5 -184 -10z"/>
<path d="M18053 1690 l27 -22 0 -388 0 -388 -22 -15 c-21 -15 -3 -16 227 -16
285 -1 298 2 303 62 l3 37 -183 2 -183 3 -3 132 -3 132 150 3 c130 3 152 5
170 22 12 11 21 31 21 47 l0 29 -167 2 -168 3 -3 133 -3 132 154 0 c141 0 157
2 181 21 17 14 26 30 26 50 l0 29 -259 0 c-143 0 -268 3 -278 6 -11 3 -8 -2
10 -16z"/>
<path d="M19994 1702 c4 -7 14 -12 21 -12 32 0 35 -39 35 -414 0 -370 0 -376
-21 -395 -22 -20 -21 -20 228 -21 239 0 251 1 276 21 18 14 27 30 27 50 l0 29
-185 0 -185 0 0 135 0 135 129 0 c169 0 211 16 211 79 0 20 -5 21 -170 21
l-170 0 0 135 0 135 153 0 c176 0 197 7 197 66 l0 34 -252 0 c-139 0 -264 3
-277 7 -17 4 -22 3 -17 -5z"/>
<path d="M17297 1678 c12 -6 24 -20 27 -32 11 -40 7 -726 -5 -747 -6 -11 -20
-24 -32 -29 -15 -6 21 -9 105 -9 l127 -1 -24 25 c-24 23 -25 28 -25 170 l0
145 58 0 57 0 89 -174 89 -173 91 4 c50 3 94 5 97 6 3 1 -45 82 -109 180
l-114 177 45 40 c62 55 87 110 87 191 -1 102 -44 180 -122 220 -33 17 -60 19
-250 18 -156 0 -207 -3 -191 -11z m377 -132 c52 -22 70 -92 42 -161 -18 -42
-58 -55 -168 -55 l-78 0 0 115 0 115 85 0 c51 0 99 -6 119 -14z"/>
<path d="M15680 1641 c-9 -17 -7 -24 10 -38 11 -10 20 -25 20 -33 0 -20 19
-40 38 -40 8 0 30 16 49 35 22 23 29 35 19 35 -8 0 -20 8 -26 18 -8 12 -13 13
-16 5 -9 -21 -32 -15 -36 10 -4 30 -43 35 -58 8z m40 -16 c0 -8 -4 -15 -9 -15
-13 0 -22 16 -14 24 11 11 23 6 23 -9z m54 -43 c9 -14 -12 -35 -28 -29 -23 9
-20 37 3 37 11 0 22 -4 25 -8z"/>
<path d="M16165 1639 c5 -7 -5 -9 -27 -6 -18 2 -25 2 -15 0 14 -4 16 -7 6 -19
-8 -10 -8 -14 0 -14 6 0 11 4 11 9 0 6 9 8 20 6 11 -2 18 0 15 5 -3 4 0 10 7
12 7 3 5 7 -6 11 -11 4 -15 3 -11 -4z"/>
<path d="M16671 1624 c12 -14 8 -21 -26 -50 -22 -18 -36 -36 -33 -40 4 -3 24
8 44 25 29 23 41 28 51 19 24 -20 22 -3 -3 30 -14 18 -30 32 -36 32 -6 0 -5
-7 3 -16z"/>
<path d="M16195 1620 c-3 -5 -3 -10 2 -11 4 0 -1 -4 -12 -9 -16 -7 -16 -9 -4
-9 9 -1 20 -8 23 -17 3 -8 11 -12 17 -8 9 5 7 11 -5 20 -11 8 -13 14 -7 19 6
3 11 1 11 -5 0 -6 4 -9 9 -5 9 5 9 -14 -1 -40 -1 -5 0 -10 5 -10 9 0 37 -53
37 -71 0 -8 -6 -11 -17 -7 -13 5 -15 2 -10 -11 6 -14 3 -17 -8 -12 -9 3 -14 2
-11 -3 3 -5 -6 -16 -20 -26 -25 -16 -25 -30 -1 -30 7 -1 11 -7 9 -15 -2 -10 0
-11 11 -2 8 7 18 8 23 4 4 -4 3 0 -3 8 -9 11 -8 21 3 40 l15 25 -6 -25 -6 -25
14 23 c7 13 14 44 16 69 1 26 4 50 7 55 3 5 0 7 -7 6 -7 -2 -14 3 -15 10 -1 6
-3 15 -4 20 -1 4 -2 10 -1 14 0 4 -8 10 -19 13 -11 4 -20 11 -20 16 0 12 -17
12 -25 -1z m75 -94 c0 -6 -5 -3 -11 7 -6 9 -15 14 -21 11 -7 -4 -8 -2 -4 5 9
14 36 -3 36 -23z m-39 -115 c-6 -10 -8 -21 -6 -25 3 -3 0 -2 -7 3 -8 8 -8 14
2 26 17 21 23 19 11 -4z"/>
<path d="M16016 1601 c-21 -23 -16 -36 15 -44 16 -4 19 -3 11 5 -8 8 -9 15 -1
25 9 9 8 13 0 13 -7 0 -9 5 -6 10 10 17 -1 11 -19 -9z m7 -16 c-3 -9 -8 -14
-10 -11 -3 3 -2 9 2 15 9 16 15 13 8 -4z"/>
<path d="M16054 1593 c-1 -12 2 -23 7 -23 5 0 9 6 9 14 0 8 6 16 12 18 7 3 4
7 -7 10 -16 4 -20 0 -21 -19z"/>
<path d="M16101 1604 c0 -11 3 -14 6 -6 3 7 2 16 -1 19 -3 4 -6 -2 -5 -13z"/>
<path d="M15970 1482 c0 -52 0 -52 91 -150 50 -53 96 -100 103 -104 6 -4 40
-38 74 -77 l63 -70 -42 -38 c-23 -21 -53 -46 -68 -55 -79 -53 -195 29 -177
125 4 19 24 54 46 79 l39 45 -24 23 -25 24 -35 -34 c-68 -66 -95 -172 -61
-238 19 -37 75 -89 109 -101 35 -13 107 -14 140 -2 14 5 53 35 88 66 l62 56
42 -41 41 -40 22 20 c12 12 22 23 22 26 0 6 -257 279 -422 449 l-88 90 0 -53z"/>
<path d="M16705 1483 c-27 -14 -45 -28 -38 -30 7 -2 21 1 32 6 28 15 37 -3 17
-34 -22 -34 -20 -55 3 -27 11 12 30 22 45 22 32 0 43 22 30 59 -12 35 -29 35
-89 4z m74 -12 c8 -14 7 -22 -4 -31 -11 -9 -16 -7 -25 10 -11 21 -6 40 10 40
5 0 14 -9 19 -19z"/>
<path d="M15550 1430 c0 -5 6 -10 14 -10 8 0 27 -5 43 -11 l28 -11 -53 -20
c-29 -11 -52 -24 -50 -30 5 -15 117 -48 124 -37 5 9 -36 29 -62 29 -30 0 -12
17 36 34 28 10 50 22 50 27 0 8 -91 39 -117 39 -7 0 -13 -4 -13 -10z"/>
<path d="M16360 1408 c0 -10 5 -18 11 -18 5 0 7 -4 4 -10 -3 -5 1 -10 10 -10
10 0 13 -5 9 -12 -4 -7 -3 -8 4 -4 11 7 17 -6 13 -28 -1 -5 4 -4 12 2 12 10
16 4 22 -40 7 -46 9 -50 16 -28 7 21 8 20 6 -12 -1 -20 1 -39 4 -42 3 -3 6 15
8 41 1 26 5 52 8 57 3 6 3 8 -2 4 -13 -13 -35 13 -35 41 0 19 -3 22 -9 12 -5
-7 -14 -10 -20 -6 -9 5 -7 11 6 22 17 13 17 13 -3 4 -21 -10 -34 -6 -34 12 0
5 7 6 16 3 9 -3 12 -2 9 5 -4 6 -14 8 -23 4 -8 -3 -19 0 -24 7 -6 10 -8 8 -8
-4z m105 -108 c3 -5 1 -10 -4 -10 -6 0 -11 5 -11 10 0 6 2 10 4 10 3 0 8 -4
11 -10z"/>
<path d="M14139 1358 c-5 -19 -2 -191 4 -195 4 -2 7 41 7 96 0 56 -2 101 -5
101 -3 0 -5 -1 -6 -2z"/>
<path d="M14172 1263 l2 -98 5 75 c7 84 9 83 40 -12 13 -38 25 -68 27 -68 2 0
3 46 2 103 l-2 102 -5 -75 -6 -75 -24 73 c-14 39 -28 72 -33 72 -4 0 -7 -44
-6 -97z"/>
<path d="M14270 1351 c0 -12 36 -20 60 -14 34 9 22 23 -20 23 -22 0 -40 -4
-40 -9z"/>
<path d="M14370 1260 l0 -100 35 0 c19 0 35 5 35 10 0 6 -13 10 -30 10 -28 0
-30 3 -30 35 0 30 3 35 24 35 14 0 28 5 31 10 4 6 -7 10 -24 10 -29 0 -31 3
-31 35 0 32 2 35 30 35 17 0 30 5 30 10 0 6 -16 10 -35 10 l-35 0 0 -100z"/>
<path d="M14462 1258 c1 -57 3 -82 5 -55 5 62 27 62 54 1 26 -57 35 -52 14 6
-10 30 -12 47 -5 54 11 11 13 56 4 80 -4 10 -18 16 -40 16 l-34 0 2 -102z m63
47 c0 -25 -4 -30 -25 -30 -21 0 -26 5 -28 33 -3 31 -2 33 25 30 24 -3 28 -8
28 -33z"/>
<path d="M14577 1272 c-16 -82 -23 -155 -8 -87 5 23 12 31 34 33 23 3 27 0 27
-22 0 -14 5 -28 10 -31 7 -4 9 2 5 17 -8 34 -35 169 -35 174 0 2 -4 4 -8 4 -4
0 -16 -40 -25 -88z m37 6 c6 -31 4 -38 -9 -38 -10 0 -15 10 -15 33 0 19 3 37
7 40 9 9 9 8 17 -35z"/>
<path d="M16770 1343 c-46 -6 -53 -14 -45 -57 9 -46 26 -47 18 -1 -5 31 -3 35
16 35 17 0 21 -6 21 -30 0 -16 5 -30 11 -30 6 0 9 14 7 33 -4 39 25 46 30 7 2
-14 8 -29 14 -35 7 -7 9 0 4 24 -3 18 -6 40 -6 47 0 14 -4 14 -70 7z"/>
<path d="M14301 1244 c0 -11 3 -14 6 -6 3 7 2 16 -1 19 -3 4 -6 -2 -5 -13z"/>
<path d="M15510 1241 c0 -6 24 -11 53 -13 48 -3 52 -5 52 -28 0 -23 -4 -25
-52 -28 -69 -4 -69 -22 0 -22 59 0 77 12 77 50 0 14 -5 31 -12 38 -14 14 -118
16 -118 3z"/>
<path d="M16430 1211 c-21 -24 -23 -46 -5 -61 12 -10 16 -9 21 4 3 9 9 14 13
11 4 -2 8 2 8 10 0 8 -4 12 -9 9 -8 -5 -12 9 -9 34 2 15 0 14 -19 -7z m13 -47
c-4 -10 -9 -12 -15 -6 -12 12 -1 35 12 27 5 -3 6 -13 3 -21z"/>
<path d="M16730 1155 c0 -25 5 -45 10 -45 6 0 10 16 10 35 0 24 5 35 15 35 10
0 15 -10 15 -29 0 -42 18 -48 22 -9 2 21 8 33 18 33 11 0 14 -9 12 -32 -2 -19
1 -33 7 -33 6 0 11 17 11 39 0 38 0 38 -46 45 -75 10 -74 10 -74 -39z"/>
<path d="M15556 1074 c-26 -14 -28 -20 -23 -56 3 -22 9 -44 14 -49 5 -5 35 0
70 12 61 20 62 21 52 47 -23 61 -58 75 -113 46z m84 -23 c16 -31 13 -37 -29
-51 -45 -15 -61 -8 -61 25 0 43 70 62 90 26z"/>
<path d="M14035 1020 c-10 -11 -14 -20 -9 -20 5 0 15 9 22 20 7 11 11 20 9 20
-2 0 -12 -9 -22 -20z"/>
<path d="M16710 1031 c0 -5 19 -16 42 -23 31 -11 44 -21 48 -39 5 -21 8 -18
22 24 16 44 9 65 -10 32 -7 -14 -13 -14 -51 0 -51 18 -51 18 -51 6z"/>
<path d="M14070 1001 c0 -6 4 -13 10 -16 6 -3 7 1 4 9 -7 18 -14 21 -14 7z"/>
<path d="M14705 1000 c3 -5 8 -10 11 -10 2 0 4 5 4 10 0 6 -5 10 -11 10 -5 0
-7 -4 -4 -10z"/>
<path d="M14641 973 c7 -12 15 -20 18 -17 3 2 -3 12 -13 22 -17 16 -18 16 -5
-5z"/>
<path d="M14130 965 c-6 -8 -10 -19 -8 -24 1 -6 8 1 15 14 13 28 11 31 -7 10z"/>
<path d="M14164 962 c4 -7 2 -21 -5 -30 -12 -15 -11 -15 6 0 16 15 17 20 6 30
-11 11 -13 10 -7 0z"/>
<path d="M14570 931 c0 -10 19 -25 25 -20 1 2 -3 10 -11 17 -8 7 -14 8 -14 3z"/>
<path d="M14251 904 c0 -11 3 -14 6 -6 3 7 2 16 -1 19 -3 4 -6 -2 -5 -13z"/>
<path d="M14353 904 c-3 -8 -2 -19 3 -24 5 -5 9 1 9 16 0 28 -3 30 -12 8z"/>
<path d="M14520 900 c0 -5 5 -10 11 -10 5 0 7 5 4 10 -3 6 -8 10 -11 10 -2 0
-4 -4 -4 -10z"/>
<path d="M15250 817 c-13 -7 -35 -28 -47 -46 -21 -31 -23 -45 -23 -178 0 -164
10 -201 62 -233 33 -20 44 -20 935 -18 l903 3 32 33 33 32 3 171 3 170 -39 40
-40 39 -898 0 c-699 0 -904 -3 -924 -13z m539 -51 c31 -33 32 -108 1 -141 -19
-20 -33 -25 -72 -25 l-48 0 0 95 0 95 48 0 c38 0 53 -5 71 -24z m161 -51 c0
-65 3 -76 20 -85 28 -15 56 -4 64 23 3 12 6 48 6 80 0 31 5 57 10 57 6 0 10
-32 10 -77 0 -88 -14 -113 -65 -113 -57 0 -69 19 -73 109 -4 69 -2 81 12 81
13 0 16 -13 16 -75z m297 7 l42 -67 1 68 c0 53 3 67 15 67 12 0 15 -17 15 -95
0 -118 -11 -122 -72 -27 l-43 67 -3 -67 c-4 -103 -22 -82 -22 27 0 69 3 95 13
95 6 0 31 -31 54 -68z m295 51 c18 -16 25 -43 10 -43 -4 0 -15 9 -25 20 -18
22 -34 25 -56 11 -23 -15 -4 -39 39 -51 53 -14 71 -47 46 -85 -13 -19 -25 -25
-53 -25 -37 0 -73 23 -73 47 0 19 13 16 33 -7 20 -24 50 -26 67 -5 18 22 6 41
-31 49 -37 7 -69 32 -69 54 0 45 75 69 112 35z m106 5 c28 -28 7 -78 -33 -78
-27 0 -45 18 -45 45 0 27 18 45 45 45 12 0 26 -5 33 -12z m-748 -108 c0 -5
-16 -10 -35 -10 -19 0 -35 5 -35 10 0 6 16 10 35 10 19 0 35 -4 35 -10z m260
0 c0 -5 -4 -10 -10 -11 -38 -4 -54 -2 -58 9 -2 8 8 12 32 12 20 0 36 -4 36
-10z m250 0 c0 -5 -16 -10 -35 -10 -19 0 -35 5 -35 10 0 6 16 10 35 10 19 0
35 -4 35 -10z m-874 -125 c14 -21 15 -31 6 -50 -7 -14 -16 -25 -21 -25 -5 0 2
-20 16 -45 20 -37 22 -45 9 -45 -9 0 -25 18 -36 40 -16 30 -26 40 -45 40 -22
0 -25 -4 -25 -40 0 -22 -4 -40 -10 -40 -6 0 -10 38 -10 95 l0 95 50 0 c42 0
52 -4 66 -25z m154 10 c0 -11 -12 -15 -45 -15 -41 0 -45 -2 -45 -25 0 -23 4
-25 45 -25 25 0 45 -4 45 -10 0 -5 -20 -10 -45 -10 -43 0 -45 -1 -45 -29 0
-28 2 -30 47 -33 73 -5 68 -28 -6 -28 l-61 0 0 95 0 95 55 0 c42 0 55 -3 55
-15z m154 -1 c16 -15 22 -44 10 -44 -3 0 -14 10 -23 22 -23 28 -68 18 -82 -19
-22 -59 25 -128 70 -103 27 14 27 40 1 40 -11 0 -20 7 -20 15 0 10 11 15 35
15 33 0 35 -2 35 -34 0 -64 -78 -89 -125 -41 -33 32 -35 100 -4 139 24 30 78
36 103 10z m76 -79 c0 -57 -4 -95 -10 -95 -6 0 -10 38 -10 95 0 57 4 95 10 95
6 0 10 -38 10 -95z m138 83 c13 -13 16 -48 4 -48 -4 0 -13 9 -20 21 -17 26
-57 22 -57 -6 0 -14 10 -23 35 -31 19 -6 41 -23 49 -37 13 -22 13 -28 -3 -51
-24 -37 -83 -34 -105 6 -19 34 -8 48 16 20 28 -33 73 -34 73 -2 0 15 -13 26
-45 40 -25 11 -46 25 -46 32 -2 23 3 43 13 56 13 15 70 16 86 0z m159 0 c-2
-7 -12 -13 -23 -13 -17 0 -19 -9 -22 -82 -2 -64 -6 -83 -17 -83 -11 0 -15 19
-17 83 -3 73 -5 82 -22 82 -11 0 -21 6 -23 13 -4 9 13 12 62 12 49 0 66 -3 62
-12z m131 -3 c-2 -5 -16 -11 -33 -12 -16 -1 -36 -2 -42 -2 -7 -1 -13 -12 -13
-26 0 -23 4 -25 45 -25 57 0 59 -18 3 -22 -39 -3 -43 -6 -46 -30 -3 -27 -2
-28 47 -28 39 0 51 -4 51 -15 0 -12 -13 -15 -60 -15 l-60 0 0 95 0 96 55 -3
c31 -2 54 -7 53 -13z m150 3 c17 -17 15 -63 -3 -78 -14 -11 -13 -17 5 -47 38
-64 17 -75 -24 -13 -16 24 -34 40 -46 40 -17 0 -20 -7 -20 -41 0 -28 -4 -39
-12 -37 -13 5 -24 148 -14 175 7 17 97 18 114 1z m159 0 c-4 -13 -10 -15 -59
-17 -23 -1 -28 -6 -28 -26 0 -23 4 -25 45 -25 25 0 45 -4 45 -10 0 -5 -20 -10
-45 -10 -43 0 -45 -1 -45 -29 0 -28 3 -30 45 -33 66 -4 55 -23 -12 -23 l-58 0
-3 93 -3 92 61 0 c45 0 61 -3 57 -12z m143 -8 c15 -15 20 -33 20 -74 0 -47 -4
-57 -26 -75 -17 -13 -41 -21 -65 -21 l-39 0 0 95 0 95 45 0 c32 0 51 -6 65
-20z m76 3 c13 -13 19 -14 22 -5 6 19 22 14 22 -8 0 -16 -7 -20 -30 -20 -21 0
-28 4 -24 14 3 8 1 17 -5 21 -7 3 -11 -2 -11 -14 0 -12 -5 -21 -11 -21 -6 0
-9 6 -6 14 3 7 0 19 -6 25 -8 8 -5 11 10 11 12 0 29 -8 39 -17z"/>
<path d="M15690 696 l0 -66 40 0 c35 0 42 4 51 28 7 17 8 40 2 62 -7 32 -11
35 -50 38 l-43 3 0 -65z"/>
<path d="M16613 774 c10 -3 17 -15 17 -29 0 -18 -4 -23 -15 -19 -8 4 -15 1
-15 -5 0 -16 26 -13 41 5 16 19 1 48 -27 51 -16 2 -16 1 -1 -3z"/>
<path d="M16582 745 c0 -16 2 -22 5 -12 2 9 2 23 0 30 -3 6 -5 -1 -5 -18z"/>
<path d="M15440 519 c0 -29 2 -30 37 -27 65 5 56 57 -9 58 -25 0 -28 -4 -28
-31z"/>
<path d="M16410 520 c0 -28 3 -30 35 -30 23 0 38 6 41 15 9 23 -15 45 -47 45
-26 0 -29 -4 -29 -30z"/>
<path d="M16719 544 c0 -2 -2 -33 -2 -69 l-2 -65 32 0 c36 0 53 21 53 67 0 37
-18 59 -52 65 -16 3 -28 4 -29 2z"/>
<path d="M13552 503 l3 -248 795 0 795 0 0 245 0 245 -798 3 -797 2 2 -247z
m1578 2 l0 -235 -785 0 -785 0 0 228 c0 126 3 232 7 235 3 4 356 7 785 7 l778
0 0 -235z"/>
<path d="M14002 663 c1 -37 2 -40 5 -15 5 40 17 41 33 2 20 -49 30 -45 29 12
-2 50 -2 51 -8 15 l-6 -38 -19 35 c-26 49 -36 45 -34 -11z"/>
<path d="M14239 693 c-8 -10 -9 -14 -2 -10 8 5 13 -6 16 -35 3 -41 4 -41 5 10
1 28 0 52 -2 52 -2 0 -10 -8 -17 -17z"/>
<path d="M14296 694 c-10 -26 -7 -49 9 -70 15 -19 15 -19 30 0 8 11 15 29 14
40 -1 14 -4 10 -10 -11 -11 -39 -26 -42 -35 -8 -8 33 2 59 21 51 8 -3 15 -1
15 4 0 16 -37 11 -44 -6z"/>
<path d="M14367 703 c-13 -12 -7 -71 9 -83 22 -19 54 12 37 38 -6 9 -18 16
-27 16 -10 -1 -15 3 -13 10 2 6 12 10 21 10 9 -1 16 2 16 7 0 10 -34 12 -43 2z
m36 -46 c3 -8 1 -20 -4 -28 -11 -19 -34 3 -26 25 8 20 23 21 30 3z"/>
<path d="M14436 701 c-3 -5 3 -7 14 -4 26 7 26 -16 0 -50 -26 -33 -25 -37 8
-36 24 2 25 2 4 6 l-24 5 22 23 c12 13 20 31 18 41 -4 21 -33 31 -42 15z"/>
<path d="M14521 691 c-9 -16 -9 -21 -1 -16 7 5 11 1 10 -11 -1 -11 -2 -28 -1
-39 1 -16 3 -17 10 -5 5 8 6 33 2 55 -7 39 -7 40 -20 16z"/>
<path d="M14583 680 c-15 -24 -19 -36 -10 -39 7 -2 17 -10 23 -17 10 -12 12
-12 16 3 2 10 1 34 -2 53 l-5 35 -22 -35z m13 -27 c-10 -10 -19 5 -10 18 6 11
8 11 12 0 2 -7 1 -15 -2 -18z"/>
<path d="M14636 695 c-8 -23 4 -45 25 -45 13 0 16 -5 12 -16 -3 -9 -12 -13
-22 -9 -13 5 -14 4 -3 -7 25 -24 52 34 36 76 -8 20 -40 21 -48 1z m40 -6 c10
-17 -13 -36 -27 -22 -12 12 -4 33 11 33 5 0 12 -5 16 -11z"/>
<path d="M14094 676 c-3 -8 -4 -25 -2 -38 4 -29 41 -32 46 -3 l4 20 -15 -20
c-14 -19 -16 -19 -22 -2 -4 9 -4 24 -1 33 5 14 9 14 23 3 14 -12 16 -12 11 1
-6 20 -37 25 -44 6z"/>
<path d="M13741 546 c-15 -18 -7 -34 25 -46 13 -5 24 -14 24 -20 0 -14 -33
-13 -48 2 -9 9 -12 9 -12 0 0 -18 33 -32 53 -21 26 15 20 39 -13 50 -16 6 -30
15 -30 19 0 17 21 21 37 8 14 -11 15 -11 11 2 -7 21 -32 24 -47 6z"/>
<path d="M14396 544 c-37 -36 2 -106 46 -83 27 14 24 49 -4 48 -17 -1 -19 -2
-5 -6 29 -8 21 -35 -10 -31 -22 2 -29 9 -31 29 -4 34 22 57 43 39 9 -7 15 -8
15 -2 0 5 -7 13 -16 16 -21 8 -20 8 -38 -10z"/>
<path d="M13900 514 c0 -21 4 -44 8 -51 4 -7 7 8 7 32 -1 25 -4 48 -8 51 -4 4
-7 -10 -7 -32z"/>
<path d="M14250 540 c0 -5 -6 -10 -14 -10 -8 0 -17 -4 -20 -9 -3 -5 2 -8 12
-7 11 1 18 -7 20 -23 3 -20 0 -23 -17 -18 -12 3 -21 1 -21 -4 0 -5 11 -9 25
-9 23 0 25 4 25 45 0 25 -2 45 -5 45 -3 0 -5 -4 -5 -10z"/>
<path d="M14607 543 c-3 -5 -1 -28 3 -53 l7 -45 2 53 c1 49 -2 62 -12 45z"/>
<path d="M14880 540 c0 -5 -9 -10 -19 -10 -24 0 -36 -32 -22 -59 7 -13 17 -17
31 -14 16 4 20 14 20 49 0 24 -2 44 -5 44 -3 0 -5 -4 -5 -10z m-3 -36 c8 -21
-13 -42 -28 -27 -13 13 -5 43 11 43 6 0 13 -7 17 -16z"/>
<path d="M13840 516 c0 -7 10 -21 23 -29 l22 -16 -25 -1 c-19 0 -22 -2 -10
-10 18 -11 41 6 33 26 -3 8 -11 14 -19 14 -20 0 -17 18 4 23 13 4 11 5 -5 6
-14 1 -23 -5 -23 -13z"/>
<path d="M13941 511 c-6 -11 -8 -26 -5 -35 7 -18 31 -28 39 -17 2 5 -5 12 -18
16 -21 7 -21 8 6 12 20 3 27 9 25 21 -5 24 -35 26 -47 3z m39 -1 c0 -5 -7 -10
-15 -10 -8 0 -15 5 -15 10 0 6 7 10 15 10 8 0 15 -4 15 -10z"/>
<path d="M14010 520 c0 -5 7 -7 15 -4 11 5 15 -2 16 -27 l1 -34 7 29 c9 42 29
44 34 4 l5 -33 -2 35 c-1 33 -3 35 -38 38 -21 1 -38 -2 -38 -8z"/>
<path d="M14110 522 c0 -6 10 -8 22 -4 14 3 19 2 14 -6 -4 -7 -13 -12 -21 -12
-17 0 -26 -25 -13 -38 5 -5 19 -7 29 -5 30 8 23 67 -8 71 -13 2 -23 -1 -23 -6z
m35 -42 c-3 -5 -13 -10 -21 -10 -8 0 -12 5 -9 10 3 6 13 10 21 10 8 0 12 -4 9
-10z"/>
<path d="M14287 524 c-16 -16 -6 -34 19 -34 19 0 25 5 22 17 -3 19 -29 29 -41
17z m33 -14 c0 -5 -7 -10 -15 -10 -8 0 -15 5 -15 10 0 6 7 10 15 10 8 0 15 -4
15 -10z"/>
<path d="M14474 504 c-8 -30 16 -61 37 -49 9 6 5 11 -12 18 l-24 10 23 6 c13
3 23 9 23 14 -1 4 -1 12 -1 17 0 6 -9 10 -20 10 -13 0 -22 -9 -26 -26z m41 6
c3 -5 -3 -10 -15 -10 -12 0 -18 5 -15 10 3 6 10 10 15 10 5 0 12 -4 15 -10z"/>
<path d="M14544 519 c-4 -7 4 -20 17 -31 l24 -20 -22 5 c-25 6 -32 -8 -9 -16
17 -7 40 18 31 33 -3 5 -13 10 -21 10 -20 0 -18 18 4 23 15 4 15 5 0 6 -9 0
-20 -4 -24 -10z"/>
<path d="M14643 495 c0 -22 2 -30 4 -17 2 12 2 30 0 40 -3 9 -5 -1 -4 -23z"/>
<path d="M14666 512 c-13 -39 21 -75 44 -47 6 8 10 24 8 37 -4 30 -44 37 -52
10z m42 -20 c2 -14 -2 -22 -12 -22 -19 0 -29 17 -22 36 8 22 30 12 34 -14z"/>
<path d="M14730 515 c0 -8 5 -15 10 -15 6 0 10 5 10 11 0 6 7 9 15 5 8 -3 15
-1 15 4 0 6 -11 10 -25 10 -16 0 -25 -6 -25 -15z"/>
<path d="M14904 504 c-8 -32 19 -65 38 -46 9 9 7 12 -10 12 -12 0 -22 5 -22
10 0 6 8 10 18 10 24 0 32 8 25 26 -9 24 -42 16 -49 -12z m41 6 c3 -5 -3 -10
-15 -10 -12 0 -18 5 -15 10 3 6 10 10 15 10 5 0 12 -4 15 -10z"/>
<path d="M14280 469 c0 -13 29 -17 38 -6 8 9 4 12 -14 12 -13 0 -24 -3 -24 -6z"/>
<path d="M14730 470 c0 -5 5 -10 11 -10 5 0 7 5 4 10 -3 6 -8 10 -11 10 -2 0
-4 -4 -4 -10z"/>
<path d="M13838 375 c-16 -35 4 -78 34 -73 12 2 23 9 24 16 1 7 0 8 -3 2 -16
-32 -58 7 -49 46 6 21 12 25 31 22 13 -3 22 -1 19 3 -11 18 -45 8 -56 -16z"/>
<path d="M13993 350 c0 -30 2 -43 4 -27 2 15 2 39 0 55 -2 15 -4 2 -4 -28z"/>
<path d="M14090 385 c-1 -11 -3 -31 -4 -44 -1 -33 -24 -38 -36 -9 -7 17 -9 18
-7 4 1 -10 10 -24 19 -30 27 -16 40 5 35 55 -2 24 -5 35 -7 24z"/>
<path d="M14220 384 c0 -8 -4 -13 -9 -10 -14 9 -33 -21 -29 -46 2 -15 11 -24
26 -26 20 -3 22 0 22 47 0 28 -2 51 -5 51 -3 0 -5 -7 -5 -16z m0 -50 c0 -26
-17 -33 -26 -9 -8 20 3 48 16 40 5 -3 10 -17 10 -31z"/>
<path d="M14290 381 c-5 -11 -10 -26 -10 -33 0 -7 6 -2 13 12 8 15 21 25 35
24 11 0 19 3 16 8 -10 15 -43 8 -54 -11z"/>
<path d="M14480 357 c0 -25 3 -48 8 -50 9 -6 8 80 -1 90 -4 3 -7 -14 -7 -40z"/>
<path d="M14547 387 c-2 -7 -1 -30 2 -52 l8 -40 4 53 c4 49 -3 68 -14 39z"/>
<path d="M13935 371 c-3 -7 0 -8 9 -5 9 3 16 1 16 -4 0 -6 -9 -14 -21 -17 -23
-8 -22 -36 1 -42 12 -4 13 -3 1 5 -7 5 -10 15 -7 21 11 18 24 13 29 -11 3 -13
4 -5 4 16 -2 38 -19 58 -32 37z"/>
<path d="M14023 340 c0 -25 2 -35 4 -22 2 12 2 32 0 45 -2 12 -4 2 -4 -23z"/>
<path d="M14125 371 c-3 -7 0 -8 9 -5 9 3 16 1 16 -4 0 -6 -9 -14 -21 -17 -23
-8 -22 -36 1 -42 12 -4 13 -3 1 5 -7 5 -10 15 -7 21 10 16 24 13 30 -6 2 -10
4 -3 3 16 -2 34 -19 52 -32 32z"/>
<path d="M14382 368 c-17 -17 -15 -58 4 -65 8 -3 20 -1 26 5 7 7 5 10 -7 9
-10 -1 -20 4 -22 11 -3 7 4 12 17 12 15 0 20 5 18 17 -4 21 -21 26 -36 11z
m28 -8 c0 -5 -7 -10 -16 -10 -8 0 -12 5 -9 10 3 6 10 10 16 10 5 0 9 -4 9 -10z"/>
<path d="M14453 373 c-8 -3 -12 -20 -12 -41 2 -34 2 -35 6 -7 3 17 9 36 15 43
11 13 10 13 -9 5z"/>
<path d="M14610 365 c-15 -18 -5 -65 15 -65 7 0 16 4 19 9 3 5 -2 8 -12 7 -12
-1 -17 6 -17 24 0 18 5 25 17 24 10 -1 15 2 12 7 -8 13 -20 11 -34 -6z"/>
<path d="M14675 370 c-3 -6 1 -7 9 -4 23 9 20 -5 -6 -25 -26 -21 -17 -41 17
-39 20 2 25 8 25 28 0 37 -30 64 -45 40z m25 -45 c0 -8 -4 -15 -9 -15 -13 0
-22 16 -14 24 11 11 23 6 23 -9z"/>
<path d="M14740 365 c-18 -21 -4 -65 20 -65 12 0 20 7 20 18 0 13 -2 14 -9 3
-11 -17 -31 -6 -31 18 0 25 11 33 27 20 8 -7 13 -8 13 -1 0 17 -28 22 -40 7z"/>
<path d="M14811 366 c-17 -20 -10 -60 11 -64 10 -2 21 6 28 20 10 21 10 22 -4
4 -17 -21 -36 -14 -36 14 0 25 20 36 32 19 8 -12 9 -12 6 0 -6 21 -23 24 -37
7z"/>
<path d="M14523 335 c0 -22 2 -30 4 -17 2 12 2 30 0 40 -3 9 -5 -1 -4 -23z"/>
<path d="M14583 335 c0 -22 2 -30 4 -17 2 12 2 30 0 40 -3 9 -5 -1 -4 -23z"/>
<path d="M14292 318 c6 -18 50 -17 55 2 4 13 3 13 -6 0 -9 -13 -14 -13 -32 -2
-18 11 -20 11 -17 0z"/>
<path d="M17237 713 c-4 -3 -7 -37 -7 -75 0 -61 2 -69 18 -66 10 2 18 14 20
31 4 35 13 34 35 -3 28 -46 62 -37 37 9 -6 12 -5 29 2 49 16 42 -2 62 -57 62
-23 0 -45 -3 -48 -7z m73 -38 c0 -8 -9 -15 -20 -15 -11 0 -20 7 -20 15 0 8 9
15 20 15 11 0 20 -7 20 -15z"/>
<path d="M17588 713 c-2 -5 -4 -37 -3 -73 0 -51 3 -65 15 -65 12 0 15 15 17
73 1 55 -2 72 -12 72 -8 0 -15 -3 -17 -7z"/>
<path d="M17741 698 c-7 -20 -16 -23 -57 -23 l-49 0 -1 -48 c-2 -42 1 -48 21
-53 45 -11 60 -1 60 39 0 48 19 48 25 0 5 -38 5 -38 50 -38 45 0 45 0 48 38 4
42 32 54 32 13 0 -50 60 -75 93 -38 19 21 21 45 7 72 -9 17 -21 19 -98 18 -81
-2 -88 -1 -97 20 -12 28 -23 28 -34 0z m59 -69 c0 -19 -4 -29 -12 -27 -12 4
-20 37 -12 50 11 18 24 6 24 -23z m140 -4 c0 -16 -6 -25 -15 -25 -9 0 -15 9
-15 25 0 16 6 25 15 25 9 0 15 -9 15 -25z m-253 -21 c-3 -3 -12 -4 -19 -1 -8
3 -5 6 6 6 11 1 17 -2 13 -5z"/>
<path d="M18103 701 c-3 -13 -13 -21 -27 -21 -29 0 -46 -18 -46 -50 0 -44 21
-62 65 -58 l40 3 0 69 c0 48 -4 71 -13 74 -7 2 -16 -5 -19 -17z m-3 -70 c0
-11 -5 -23 -11 -27 -14 -8 -29 14 -22 33 8 20 33 16 33 -6z"/>
<path d="M18314 706 c-3 -7 -4 -40 -2 -72 2 -44 7 -59 18 -59 8 0 16 9 18 20
2 11 17 27 35 35 35 16 47 51 27 76 -16 18 -89 19 -96 0z m66 -31 c0 -8 -7
-15 -15 -15 -8 0 -15 7 -15 15 0 8 7 15 15 15 8 0 15 -7 15 -15z"/>
<path d="M18730 700 c0 -21 -5 -23 -63 -20 -26 1 -39 -3 -43 -15 -6 -15 -8
-15 -24 0 -10 9 -26 16 -36 15 -11 0 -44 -1 -74 -3 l-55 -2 0 -50 c0 -38 4
-50 15 -50 10 0 16 12 18 38 3 29 7 37 23 37 14 0 19 -7 19 -28 0 -15 5 -33
12 -40 17 -17 63 -15 79 4 11 14 13 14 21 0 10 -17 54 -21 76 -7 8 5 12 21 10
37 -2 16 2 30 7 32 6 1 12 -14 15 -35 l5 -38 78 -2 79 -1 -7 26 -6 27 23 -27
c18 -21 32 -27 61 -26 l37 0 0 74 c0 59 -3 74 -15 74 -8 0 -15 -9 -15 -20 0
-16 -7 -20 -31 -20 -22 0 -32 -5 -36 -20 -6 -23 -23 -27 -23 -5 0 37 -84 36
-86 -1 -2 -26 -14 -54 -25 -54 -12 0 -11 44 1 56 7 7 6 19 -2 37 -15 31 -38
36 -38 7z m-165 -50 c3 -5 1 -10 -4 -10 -6 0 -11 5 -11 10 0 6 2 10 4 10 3 0
8 -4 11 -10z m275 0 c0 -5 -5 -10 -11 -10 -5 0 -7 5 -4 10 3 6 8 10 11 10 2 0
4 -4 4 -10z m123 -13 c7 -19 -8 -41 -22 -33 -16 10 -14 46 3 46 8 0 16 -6 19
-13z m-333 -18 c0 -5 -7 -9 -15 -9 -9 0 -12 6 -9 15 6 15 24 11 24 -6z m215
-9 c3 -5 -1 -10 -10 -10 -9 0 -13 5 -10 10 3 6 8 10 10 10 2 0 7 -4 10 -10z
m-268 -6 c-3 -3 -12 -4 -19 -1 -8 3 -5 6 6 6 11 1 17 -2 13 -5z"/>
<path d="M19533 700 c-3 -11 -11 -19 -18 -16 -24 9 -55 -23 -55 -58 0 -43 19
-58 67 -54 l38 3 0 69 c0 48 -4 71 -13 74 -7 2 -16 -5 -19 -18z m-3 -69 c0
-11 -5 -23 -11 -27 -14 -8 -29 14 -22 33 8 20 33 16 33 -6z"/>
<path d="M19752 708 c-24 -24 -14 -56 23 -69 19 -7 35 -19 35 -26 0 -19 -27
-16 -38 4 -6 10 -16 14 -27 9 -16 -6 -16 -8 -2 -29 21 -32 80 -36 100 -7 l15
22 11 -21 c13 -24 59 -29 79 -9 7 7 12 27 12 44 0 61 -69 79 -96 25 -10 -19
-12 -20 -24 -6 -10 12 -10 19 -2 27 8 8 8 17 1 30 -11 21 -68 25 -87 6z m61
-32 c4 -10 0 -12 -14 -9 -22 6 -26 23 -5 23 8 0 16 -6 19 -14z m107 -26 c0 -5
-5 -10 -11 -10 -5 0 -7 5 -4 10 3 6 8 10 11 10 2 0 4 -4 4 -10z m7 -46 c-3 -3
-12 -4 -19 -1 -8 3 -5 6 6 6 11 1 17 -2 13 -5z"/>
<path d="M20159 713 c-1 -5 0 -16 1 -26 1 -15 -3 -17 -19 -12 -15 4 -23 -1
-35 -22 l-14 -28 -7 28 c-7 27 -10 28 -59 25 l-51 -3 0 -50 c0 -38 4 -50 15
-50 10 0 16 12 18 38 5 53 34 51 56 -4 21 -52 43 -48 66 11 l18 45 4 -45 c2
-32 7 -45 18 -45 12 0 15 15 17 73 1 56 -2 72 -13 72 -8 0 -15 -3 -15 -7z"/>
<path d="M20319 716 c-2 -2 -3 -36 -1 -75 3 -54 7 -71 18 -71 11 0 14 16 13
75 -1 51 -5 75 -14 75 -6 0 -14 -2 -16 -4z"/>
<path d="M17388 683 c-9 -2 -22 -17 -28 -33 -10 -25 -10 -34 4 -55 19 -29 66
-34 86 -10 7 8 16 12 22 9 5 -3 4 -12 -4 -21 -27 -33 55 -59 86 -27 11 10 16
34 16 75 l0 59 -45 0 c-31 0 -47 -5 -54 -17 -9 -17 -11 -17 -23 -2 -15 19 -37
27 -60 22z m27 -33 c3 -5 1 -10 -4 -10 -6 0 -11 5 -11 10 0 6 2 10 4 10 3 0 8
-4 11 -10z m113 -22 c-2 -13 -7 -23 -13 -23 -5 0 -11 10 -13 23 -2 15 2 22 13
22 11 0 15 -7 13 -22z m-98 -24 c0 -2 -9 -4 -21 -4 -11 0 -18 4 -14 10 5 8 35
3 35 -6z m97 -40 c-3 -3 -12 -4 -19 -1 -8 3 -5 6 6 6 11 1 17 -2 13 -5z"/>
<path d="M18180 677 c-18 -9 -26 -22 -28 -45 -4 -41 12 -62 48 -62 36 0 52 21
48 61 -4 43 -34 63 -68 46z m25 -27 c3 -5 1 -10 -4 -10 -6 0 -11 5 -11 10 0 6
2 10 4 10 3 0 8 -4 11 -10z m12 -46 c-3 -3 -12 -4 -19 -1 -8 3 -5 6 6 6 11 1
17 -2 13 -5z"/>
<path d="M19235 680 c-11 -4 -39 -5 -62 -2 l-43 5 0 -57 c0 -43 3 -56 15 -56
9 0 15 9 15 24 0 38 10 56 32 56 16 0 19 -5 14 -27 -3 -16 -2 -34 2 -40 9 -14
78 -13 99 0 6 4 14 3 18 -3 9 -15 61 -12 75 5 7 8 9 22 5 32 -4 10 -8 27 -9
38 -1 14 -9 21 -29 23 -35 4 -59 -15 -52 -39 4 -10 3 -24 -2 -31 -5 -8 -10 1
-13 26 -5 42 -29 59 -65 46z m25 -30 c0 -5 -4 -10 -10 -10 -5 0 -10 5 -10 10
0 6 5 10 10 10 6 0 10 -4 10 -10z m0 -40 c0 -5 -5 -10 -11 -10 -5 0 -7 5 -4
10 3 6 8 10 11 10 2 0 4 -4 4 -10z m107 -6 c-3 -3 -12 -4 -19 -1 -8 3 -5 6 6
6 11 1 17 -2 13 -5z"/>
<path d="M20232 679 c-24 -9 -37 -47 -27 -78 12 -39 95 -39 95 0 0 20 -15 26
-25 9 -12 -20 -35 -10 -35 15 0 26 18 33 38 13 9 -9 13 -7 18 5 12 31 -23 51
-64 36z"/>
<path d="M19019 656 c-16 -35 -4 -74 25 -82 56 -14 91 29 67 82 -8 19 -18 24
-46 24 -28 0 -38 -5 -46 -24z m61 -31 c0 -16 -6 -25 -15 -25 -9 0 -15 9 -15
25 0 16 6 25 15 25 9 0 15 -9 15 -25z"/>
<path d="M19592 668 c-7 -7 -12 -26 -12 -43 0 -17 5 -36 12 -43 16 -16 63 -15
75 1 14 18 15 68 2 83 -14 17 -61 18 -77 2z m43 -18 c3 -5 1 -10 -4 -10 -6 0
-11 5 -11 10 0 6 2 10 4 10 3 0 8 -4 11 -10z m15 -42 c0 -4 -7 -8 -15 -8 -8 0
-15 4 -15 8 0 5 7 9 15 9 8 0 15 -4 15 -9z"/>
<path d="M20370 661 c-5 -11 -10 -29 -10 -40 0 -44 62 -68 93 -36 13 13 16 13
27 0 29 -35 101 -6 85 32 -4 10 -8 27 -9 38 -1 28 -55 34 -74 8 -12 -17 -14
-17 -23 0 -14 24 -75 23 -89 -2z m160 -11 c0 -5 -2 -10 -4 -10 -3 0 -8 5 -11
10 -3 6 -1 10 4 10 6 0 11 -4 11 -10z m-100 -25 c0 -16 -6 -25 -15 -25 -9 0
-15 9 -15 25 0 16 6 25 15 25 9 0 15 -9 15 -25z m55 6 c3 -5 1 -12 -5 -16 -5
-3 -10 1 -10 9 0 18 6 21 15 7z"/>
<path d="M17237 514 c-4 -4 -7 -35 -7 -70 0 -47 4 -63 16 -68 26 -10 69 -7 82
6 9 9 15 9 24 0 16 -16 53 -15 67 2 13 15 9 72 -6 87 -6 6 -23 9 -39 7 -25 -3
-29 -7 -30 -36 -1 -18 -3 -34 -5 -36 -8 -6 -79 6 -79 14 0 5 14 10 32 12 42 4
50 28 9 28 -41 0 -49 18 -9 22 50 5 44 32 -7 36 -23 2 -44 0 -48 -4z m148
-104 c3 -5 1 -10 -4 -10 -6 0 -11 5 -11 10 0 6 2 10 4 10 3 0 8 -4 11 -10z"/>
<path d="M17768 513 c-2 -4 -5 -36 -7 -70 -2 -63 13 -92 31 -59 8 14 11 14 24
2 8 -9 29 -14 51 -12 l38 2 -4 44 c-3 55 -10 62 -52 58 -29 -3 -34 -7 -35 -31
-2 -41 -14 -46 -15 -6 -1 19 -2 43 -3 53 -1 20 -21 33 -28 19z m92 -63 c0 -5
-5 -10 -11 -10 -5 0 -7 5 -4 10 3 6 8 10 11 10 2 0 4 -4 4 -10z m0 -40 c0 -5
-5 -10 -11 -10 -5 0 -7 5 -4 10 3 6 8 10 11 10 2 0 4 -4 4 -10z"/>
<path d="M17918 508 c-6 -19 -1 -128 6 -135 16 -16 27 20 24 77 -3 58 -19 90
-30 58z"/>
<path d="M17967 513 c-2 -4 -3 -37 -3 -73 l1 -65 114 0 c101 0 115 2 119 18 4
16 5 16 17 1 6 -9 29 -18 49 -20 30 -2 39 1 43 16 5 17 6 17 24 -1 23 -23 52
-25 69 -4 10 12 15 12 36 -1 15 -10 33 -14 49 -10 23 6 25 10 22 54 -3 43 -5
47 -31 50 -16 2 -36 -4 -46 -13 -16 -14 -18 -14 -23 0 -9 23 -63 19 -81 -6
-14 -21 -15 -20 -18 16 -3 42 -26 59 -35 26 -3 -14 -13 -21 -29 -21 -13 0 -28
-8 -34 -17 -10 -17 -10 -17 -20 0 -7 10 -23 17 -39 17 -30 0 -57 -22 -47 -39
10 -16 -5 -41 -25 -41 -24 0 -24 6 1 37 27 35 16 46 -41 41 -44 -5 -48 -3 -46
15 2 20 -17 35 -26 20z m56 -89 c-20 -31 -23 -30 -23 5 0 24 3 28 20 24 18 -5
18 -7 3 -29z m134 20 c-3 -3 -12 -4 -19 -1 -8 3 -5 6 6 6 11 1 17 -2 13 -5z
m111 -16 c-2 -13 -7 -23 -13 -23 -5 0 -11 10 -13 23 -2 15 2 22 13 22 11 0 15
-7 13 -22z m112 -4 c0 -31 -23 -28 -28 4 -2 15 2 22 12 22 11 0 16 -9 16 -26z
m47 -6 c-3 -8 -6 -5 -6 6 -1 11 2 17 5 13 3 -3 4 -12 1 -19z m-267 -8 c0 -5
-4 -10 -10 -10 -5 0 -10 5 -10 10 0 6 5 10 10 10 6 0 10 -4 10 -10z m315 -8
c-3 -3 -11 0 -18 7 -9 10 -8 11 6 5 10 -3 15 -9 12 -12z"/>
<path d="M18742 504 c-17 -12 -22 -25 -22 -59 0 -46 24 -75 61 -75 33 0 69 39
69 76 0 62 -58 94 -108 58z m68 -54 c0 -38 -23 -56 -44 -35 -20 21 -20 39 -1
59 22 21 45 9 45 -24z"/>
<path d="M18864 506 c-3 -7 -4 -39 -2 -71 3 -56 4 -58 33 -61 34 -4 47 3 63
31 11 20 11 20 12 -2 0 -53 40 -33 40 20 0 22 4 28 18 25 11 -3 16 -12 14 -27
-3 -35 15 -50 54 -47 19 2 37 6 41 9 3 4 14 2 25 -4 39 -21 91 12 71 44 -4 7
-7 21 -8 32 0 16 -7 20 -35 20 -30 0 -35 -3 -37 -25 -2 -45 -4 -46 -16 -10
l-12 35 -77 2 c-74 2 -78 1 -78 -20 l0 -21 -16 22 c-8 12 -26 22 -40 22 -17 0
-24 5 -24 20 0 23 -18 27 -26 6z m61 -81 c0 -10 -5 -20 -11 -22 -13 -4 -27 24
-18 38 9 15 29 4 29 -16z m172 19 c-3 -3 -12 -4 -19 -1 -8 3 -5 6 6 6 11 1 17
-2 13 -5z m3 -34 c0 -5 -4 -10 -10 -10 -5 0 -10 5 -10 10 0 6 5 10 10 10 6 0
10 -4 10 -10z"/>
<path d="M19303 513 c-20 -8 -17 -129 3 -137 25 -10 82 -7 89 4 4 7 13 6 27
-1 23 -13 67 -4 69 14 1 6 4 -1 8 -17 7 -35 30 -46 38 -18 3 13 11 18 23 15
11 -3 24 4 33 17 l15 22 21 -21 c12 -12 26 -21 32 -21 21 0 49 21 49 38 1 14
2 14 12 -3 22 -39 55 -46 83 -19 21 21 4 44 -19 25 -17 -14 -36 -7 -36 14 0
20 20 29 33 16 18 -18 29 -13 25 12 -4 28 -52 36 -77 12 -16 -14 -19 -14 -31
0 -16 20 -54 19 -75 -1 -15 -15 -17 -15 -28 1 -15 20 -91 18 -93 -2 -1 -7 -2
-21 -3 -30 -2 -23 -15 -6 -16 20 0 31 -59 37 -74 8 -8 -14 -8 -22 -1 -26 21
-13 -9 -31 -45 -27 -41 5 -47 19 -8 24 39 4 42 28 4 28 -17 0 -31 5 -31 10 0
6 10 10 23 10 29 0 51 15 43 29 -7 11 -70 14 -93 4z m265 -85 c-2 -13 -7 -23
-13 -23 -5 0 -11 10 -13 23 -2 15 2 22 13 22 11 0 15 -7 13 -22z m112 -18 c0
-5 -7 -10 -15 -10 -8 0 -15 5 -15 10 0 6 7 10 15 10 8 0 15 -4 15 -10z"/>
<path d="M19834 507 c-9 -24 0 -127 11 -125 13 4 16 126 4 134 -5 3 -12 -1
-15 -9z"/>
<path d="M19984 506 c-10 -25 1 -129 14 -134 9 -3 12 16 12 72 0 46 -4 76 -10
76 -6 0 -13 -6 -16 -14z"/>
<path d="M20037 513 c-3 -5 -4 -37 -3 -73 l1 -65 115 0 115 0 -2 30 c-2 25 -1
27 6 10 5 -12 15 -26 23 -32 17 -15 67 -11 77 6 6 9 11 8 20 -3 13 -15 67 -16
90 -1 7 4 18 2 24 -4 27 -27 86 2 72 35 -4 10 -8 28 -9 39 -1 16 -8 20 -36 20
-31 0 -35 -3 -35 -27 -1 -15 -4 -30 -8 -34 -4 -4 -7 4 -7 17 0 33 -17 49 -51
49 -30 0 -45 -15 -41 -42 2 -9 -2 -19 -8 -23 -6 -4 -10 13 -10 49 0 56 -16 77
-27 36 -3 -13 -14 -20 -29 -20 -12 0 -29 -9 -37 -20 l-14 -21 -6 21 c-5 18
-12 21 -44 18 -34 -3 -38 -6 -39 -31 -1 -35 -17 -52 -40 -43 -15 6 -15 9 5 29
35 38 28 50 -29 45 -43 -4 -50 -3 -50 13 0 19 -16 34 -23 22z m56 -62 c16 -6
16 -9 -8 -31 l-25 -23 0 31 c0 33 3 35 33 23z m127 -1 c0 -5 -5 -10 -11 -10
-5 0 -7 5 -4 10 3 6 8 10 11 10 2 0 4 -4 4 -10z m117 -16 c8 -22 -15 -44 -26
-25 -10 16 -4 41 10 41 5 0 12 -7 16 -16z m-117 -24 c0 -5 -5 -10 -11 -10 -5
0 -7 5 -4 10 3 6 8 10 11 10 2 0 4 -4 4 -10z m220 0 c0 -5 -5 -10 -11 -10 -5
0 -7 5 -4 10 3 6 8 10 11 10 2 0 4 -4 4 -10z m95 0 c3 -5 1 -10 -4 -10 -6 0
-11 5 -11 10 0 6 2 10 4 10 3 0 8 -4 11 -10z"/>
<path d="M17440 410 c0 -56 3 -70 15 -70 8 0 15 7 15 15 0 8 9 15 20 15 11 0
27 8 36 19 16 18 17 18 35 0 23 -23 52 -24 73 -4 14 14 18 14 41 -1 21 -14 31
-15 50 -6 14 7 25 18 25 27 0 17 -25 21 -35 5 -9 -15 -25 -2 -25 21 0 21 20
25 37 8 16 -16 28 8 13 26 -17 20 -55 19 -75 -2 -16 -16 -18 -16 -27 0 -11 21
-61 22 -78 2 -12 -14 -15 -14 -30 0 -9 8 -33 15 -53 15 l-37 0 0 -70z m65 15
c0 -10 -5 -20 -11 -22 -13 -4 -27 24 -18 38 9 15 29 4 29 -16z m105 -15 c0 -5
-4 -10 -10 -10 -5 0 -10 5 -10 10 0 6 5 10 10 10 6 0 10 -4 10 -10z"/>
<path d="M18570 436 c0 -50 14 -66 55 -62 28 3 30 6 33 55 2 40 0 51 -12 51
-10 0 -16 -12 -18 -37 -2 -21 -7 -38 -13 -38 -5 0 -11 17 -13 38 -5 56 -32 50
-32 -7z"/>
<path d="M19884 468 c-12 -18 -13 -72 -2 -85 5 -7 26 -10 46 -9 35 3 37 6 40
40 2 21 -2 44 -9 52 -14 17 -65 19 -75 2z m46 -58 c0 -5 -4 -10 -10 -10 -5 0
-10 5 -10 10 0 6 5 10 10 10 6 0 10 -4 10 -10z"/>
</g>
</svg>
